<svg width="711" height="139" viewBox="0 0 711 139" fill="none" xmlns="http://www.w3.org/2000/svg">
<path d="M109.72 5.07001C109.72 6.89001 109.027 8.84 107.64 10.92C106.513 12.6533 105.343 14.3867 104.13 16.12C102.57 18.72 98.4967 22.49 91.91 27.43C88.4433 30.3767 83.1567 34.7533 76.05 40.56C74.75 41.5133 73.19 42.8567 71.37 44.59C69.4633 47.71 66.43 52.2167 62.27 58.11C57.5033 63.7433 53.56 67.73 50.44 70.07C46.9733 72.67 45.24 74.0133 45.24 74.1C45.24 75.2267 46.4533 76.18 48.88 76.96C50.7867 77.6533 52.4333 78 53.82 78C55.7266 78 57.5466 77.7833 59.28 77.35C62.5733 76.4833 65.91 74.7067 69.29 72.02C70.7633 70.98 72.93 69.3333 75.79 67.08C76.7433 66.3 78.2167 65.13 80.21 63.57C80.8166 63.05 81.3366 62.79 81.77 62.79C82.2033 62.79 82.42 63.0067 82.42 63.44C82.42 63.7867 82.0733 64.35 81.38 65.13C79.6466 66.8633 74.23 71.37 65.13 78.65C62.6167 80.73 60.06 82.2467 57.46 83.2C54.08 84.4133 51.5667 85.02 49.92 85.02C47.4066 85.02 44.2866 84.0667 40.56 82.16C36.8333 80.2533 34.84 79.3 34.58 79.3C34.06 79.3 33.2366 79.56 32.11 80.08C26.9966 82.5933 20.8433 83.85 13.65 83.85C8.88331 83.85 5.41665 82.94 3.24998 81.12C1.08331 79.3 -2.00272e-05 77.74 -2.00272e-05 76.44C-2.00272e-05 75.4 0.606647 74.1 1.81998 72.54C5.11331 68.64 12.5233 66.69 24.05 66.69C27.8633 66.69 30.7233 67.08 32.63 67.86C37.05 69.5067 39.13 70.33 38.87 70.33C40.7766 70.33 43.5933 68.51 47.32 64.87C49.3133 62.8767 51.35 60.45 53.43 57.59C56.4633 53.2567 57.98 50.9167 57.98 50.57C57.98 50.3967 57.85 50.31 57.59 50.31C57.4166 50.31 57.1566 50.3967 56.81 50.57C53.95 52.0433 49.53 53.9933 43.55 56.42C40.8633 57.2867 38.1766 58.1533 35.49 59.02C31.6766 60.32 29.12 60.97 27.82 60.97C26.8666 60.97 26.39 60.71 26.39 60.19C26.39 58.37 27.6033 57.33 30.03 57.07C33.5833 56.6367 38.87 54.9033 45.89 51.87C52.13 49.1833 57.2433 46.5833 61.23 44.07C61.75 43.81 63.05 42.0767 65.13 38.87C70.7633 30.3767 75.5733 24.1367 79.56 20.15C82.2466 17.4633 86.71 13.6933 92.95 8.84001C100.577 2.94667 105.387 3.33786e-06 107.38 3.33786e-06C108.94 3.33786e-06 109.72 1.69 109.72 5.07001ZM101.27 10.92C101.27 10.4867 101.01 10.27 100.49 10.27C97.4567 10.27 92.1267 13.8667 84.5 21.06C81.9867 23.4 79.95 26.0433 78.39 28.99C77.9567 29.8567 77.3067 31.07 76.44 32.63C74.9667 34.8833 74.23 36.1833 74.23 36.53C74.23 36.79 74.4467 36.92 74.88 36.92C76.0067 36.92 78.6933 34.7967 82.94 30.55C85.3666 28.6433 89.0067 25.6967 93.86 21.71C95.2467 20.4967 96.72 18.85 98.28 16.77C100.273 14.17 101.27 12.22 101.27 10.92ZM27.82 76.31C27.82 75.79 26.3466 75.01 23.4 73.97C20.8866 73.1033 19.0666 72.5833 17.94 72.41C16.9 72.2367 15.86 72.15 14.82 72.15C12.6533 72.15 10.14 72.8867 7.27998 74.36C5.71998 75.14 4.93998 75.79 4.93998 76.31L5.06998 76.7C6.88998 78.52 10.53 79.43 15.99 79.43C19.5433 79.43 22.7933 78.8233 25.74 77.61C27.1266 76.9167 27.82 76.4833 27.82 76.31ZM108.674 63.44C108.674 63.96 107.591 65.1733 105.424 67.08C99.9639 71.8467 95.4572 75.27 91.9039 77.35C86.5306 80.47 81.2006 82.03 75.9139 82.03C71.4939 82.03 69.2839 79.82 69.2839 75.4C69.2839 74.0133 70.2806 72.15 72.2739 69.81C74.2672 67.3833 76.3472 64.9567 78.5139 62.53C80.6806 60.0167 83.1506 57.98 85.9239 56.42C89.9106 54.1667 92.5106 53.04 93.7239 53.04C95.1972 53.04 95.9339 53.9067 95.9339 55.64C95.9339 59.28 93.8972 62.6167 89.8239 65.65C85.8372 68.5967 82.5006 70.5033 79.8139 71.37C79.2072 71.63 78.8606 71.8033 78.7739 71.89C78.7739 71.89 78.6872 72.1933 78.5139 72.8C77.8206 74.5333 77.4739 75.5733 77.4739 75.92C77.4739 77.3067 78.6872 78 81.1139 78C83.8006 78 87.0506 77.0033 90.8639 75.01C93.1172 73.7967 98.2739 69.9833 106.334 63.57C106.941 63.05 107.461 62.79 107.894 62.79C108.414 62.79 108.674 63.0067 108.674 63.44ZM90.6039 59.15C90.6039 58.9767 90.5606 58.8467 90.4739 58.76C90.3006 58.76 90.1272 58.76 89.9539 58.76C88.8272 58.76 87.0939 59.8433 84.7539 62.01C82.4139 64.09 81.2439 65.65 81.2439 66.69C81.2439 66.95 81.4172 67.08 81.7639 67.08C82.4572 67.08 83.7572 66.43 85.6639 65.13C87.6572 63.83 88.9139 62.8333 89.4339 62.14C90.2139 60.84 90.6039 59.8433 90.6039 59.15ZM189.166 39.26C189.166 40.4733 188.213 41.1233 186.306 41.21C183.013 41.1233 178.073 41.21 171.486 41.47C169.32 41.5567 167.846 41.6 167.066 41.6C167.413 41.6 166.373 41.47 163.946 41.21C162.646 41.0367 160.913 40.95 158.746 40.95H155.366C153.546 40.95 150.903 41.08 147.436 41.34C144.056 41.6 141.5 41.73 139.766 41.73C139.333 41.73 138.64 41.6867 137.686 41.6C136.733 41.6 136.04 41.6 135.606 41.6C132.226 41.6 127.72 46.1933 122.086 55.38C120.7 57.1133 118.836 59.8867 116.496 63.7C116.15 64.6533 115.586 65.9967 114.806 67.73C114.546 68.3367 113.723 69.5933 112.336 71.5C111.21 72.9733 110.646 74.2733 110.646 75.4C110.646 76.96 111.34 77.74 112.726 77.74C115.326 77.74 119.876 75.27 126.376 70.33C132.963 65.3033 136.386 62.79 136.646 62.79C137.08 62.79 137.296 63.0067 137.296 63.44C137.296 63.96 136.213 65.1733 134.046 67.08C131.1 69.68 126.55 73.2767 120.396 77.87C119.183 78.4767 117.406 79.3867 115.066 80.6C114.633 80.9467 113.506 81.3367 111.686 81.77C109.866 82.29 108.653 82.55 108.046 82.55C106.66 82.55 105.273 82.03 103.886 80.99C102.586 79.95 101.936 78.7367 101.936 77.35C101.936 76.31 102.846 74.2733 104.666 71.24C105.533 69.7667 106.443 68.2933 107.396 66.82C107.31 66.7333 107.136 66.69 106.876 66.69C106.443 66.69 105.36 67.3833 103.626 68.77C101.98 70.07 100.81 70.72 100.116 70.72C99.2496 70.72 98.8162 70.5467 98.8162 70.2C98.8162 69.94 99.2929 69.4633 100.246 68.77C102.413 66.69 105.836 63.7 110.516 59.8C114.156 57.0267 118.446 51.9133 123.386 44.46C123.993 43.5067 124.296 42.8567 124.296 42.51C124.296 42.0767 124.036 41.86 123.516 41.86C123.083 41.7733 122.39 41.6433 121.436 41.47C120.483 41.2967 119.703 41.21 119.096 41.21C118.576 41.21 117.753 41.2967 116.626 41.47C115.5 41.6433 114.676 41.73 114.156 41.73C113.723 41.73 113.073 41.73 112.206 41.73C111.426 41.6433 110.776 41.6 110.256 41.6H106.356C101.85 41.6 99.2929 41.47 98.6862 41.21C98.0796 40.95 97.7762 40.56 97.7762 40.04C97.7762 39.3467 98.1662 38.9133 98.9462 38.74C99.8129 38.5667 102.976 38.48 108.436 38.48C109.39 38.48 110.776 38.3933 112.596 38.22C114.416 38.0467 115.803 37.96 116.756 37.96C117.45 37.96 118.576 37.96 120.136 37.96C121.696 38.0467 122.866 38.09 123.646 38.09C125.726 38.09 127.113 37.7867 127.806 37.18C130.406 35.0133 132.53 32.2833 134.176 28.99C135.736 25.9567 138.336 22.4033 141.976 18.33C142.93 17.1167 143.883 15.9033 144.836 14.69C146.223 13.13 147.436 12.2633 148.476 12.09C149.256 12.0033 149.906 11.96 150.426 11.96C151.813 11.96 152.506 12.3933 152.506 13.26C152.506 13.9533 151.856 15.34 150.556 17.42C149.256 19.5 148.216 20.8433 147.436 21.45C145.79 22.75 144.013 24.8733 142.106 27.82C141.153 29.2067 139.333 31.46 136.646 34.58C136.213 35.1 135.996 35.5333 135.996 35.88C135.996 37.0067 137.123 37.6567 139.376 37.83C140.07 37.9167 142.973 38.0467 148.086 38.22C154.326 38.3933 157.36 38.48 157.186 38.48H158.226C161.086 38.3067 165.42 38.09 171.226 37.83H172.396C173.523 37.83 175.17 37.96 177.336 38.22C179.503 38.3933 181.106 38.48 182.146 38.48C182.753 38.48 183.62 38.4367 184.746 38.35C185.96 38.2633 186.826 38.22 187.346 38.22C188.56 38.22 189.166 38.5667 189.166 39.26ZM378.41 13.91C378.583 17.6367 374.64 20.8867 366.58 23.66C360.6 25.74 354.966 26.9533 349.68 27.3C348.033 27.3867 345.953 27.43 343.44 27.43C332.173 27.43 322.466 26.6933 314.32 25.22C311.2 24.6133 306.866 23.5733 301.32 22.1C297.42 21.1467 295.34 20.67 295.08 20.67C294.56 20.67 293.866 20.93 293 21.45C287.106 24.9167 282.253 28.4267 278.44 31.98C276.013 34.06 272.72 37.3967 268.56 41.99C268.213 42.4233 267.866 42.64 267.52 42.64C267 42.64 266.74 42.3367 266.74 41.73C266.74 40.7767 268.3 38.5233 271.42 34.97C273.846 32.1967 275.883 30.0733 277.53 28.6C279.783 26.6067 282.383 24.5267 285.33 22.36C286.37 21.7533 287.8 20.8 289.62 19.5C289.706 19.4133 289.75 19.2833 289.75 19.11C289.75 18.85 289.23 18.5033 288.19 18.07C275.363 12.7833 268.126 9.88001 266.48 9.36001C259.893 7.28001 252.093 6.24001 243.08 6.24001C241.26 6.24001 238.66 6.32667 235.28 6.5C231.9 6.67334 230.21 7.06334 230.21 7.67001C230.21 7.49667 230.556 8.23334 231.25 9.88001C232.03 11.44 232.42 12.9567 232.42 14.43C232.42 15.6433 232.203 17.03 231.77 18.59C229.863 24.9167 225.876 30.42 219.81 35.1C209.93 42.64 200.786 46.41 192.38 46.41C185.966 46.41 182.76 43.5933 182.76 37.96C182.76 32.0667 185.49 26.65 190.95 21.71C195.976 17.1167 199.92 14.04 202.78 12.48C206.246 10.66 207.98 9.57667 207.98 9.23001C207.98 9.14334 207.893 9.1 207.72 9.1C207.2 9.1 206.42 9.27334 205.38 9.62C204.426 9.96667 203.69 10.14 203.17 10.14C202.476 10.14 202.13 9.88001 202.13 9.36001C202.13 7.80001 205.163 6.45667 211.23 5.33C215.91 4.46334 219.68 4.03001 222.54 4.03001C222.973 4.03001 223.623 4.07334 224.49 4.16C225.356 4.24667 226.006 4.29 226.44 4.29C226.873 4.29 227.783 4.16 229.17 3.90001C234.37 2.77334 238.313 2.21001 241 2.21001C254 2.21001 266.826 4.85334 279.48 10.14C288.06 13.78 293.173 15.6 294.82 15.6C295.513 15.6 296.986 14.9933 299.24 13.78C308.166 9.1 316.876 5.85 325.37 4.03001C336.463 1.69 345.39 0.520004 352.15 0.520004C358.563 0.520004 363.98 1.25667 368.4 2.73001C374.813 4.98334 378.15 8.58 378.41 13.52V13.91ZM257.51 10.92C257.51 11.7 256.86 12.6533 255.56 13.78C250.1 18.72 244.856 24.57 239.83 31.33C235.323 37.57 232.29 42.5967 230.73 46.41C229.95 48.4033 229.56 49.4433 229.56 49.53C229.56 49.8767 229.69 50.05 229.95 50.05C230.816 50.05 233.85 48.7933 239.05 46.28C244.25 43.68 246.936 42.38 247.11 42.38C247.716 42.38 248.41 42.6833 249.19 43.29C250.056 43.8967 250.49 44.5033 250.49 45.11C250.49 45.4567 250.273 45.89 249.84 46.41C249.666 46.5833 248.54 47.84 246.46 50.18C244.726 52 242.17 54.86 238.79 58.76C237.143 60.7533 233.33 64.35 227.35 69.55C225.27 71.5433 223.233 73.5367 221.24 75.53C218.293 78.3033 216.04 79.8633 214.48 80.21C212.92 80.6433 211.75 80.86 210.97 80.86C210.276 80.86 209.93 80.73 209.93 80.47C209.93 80.1233 211.793 78.6933 215.52 76.18C219.853 73.2333 223.666 69.7667 226.96 65.78C229.213 62.66 232.376 58.76 236.45 54.08C237.836 52.8667 238.53 52 238.53 51.48C238.53 51.22 238.356 51.09 238.01 51.09C237.663 51.09 236.276 51.5667 233.85 52.52C228.476 54.6867 225.14 56.3767 223.84 57.59C223.406 58.0233 220.633 61.8367 215.52 69.03C210.406 76.2233 204.383 81.12 197.45 83.72C189.65 86.58 183.15 88.01 177.95 88.01C176.303 88.01 174.83 87.23 173.53 85.67C172.23 84.1967 171.58 82.6367 171.58 80.99C171.58 79.0833 172.576 77.48 174.57 76.18C174.83 76.0067 176.39 74.7933 179.25 72.54C182.196 70.2 185.056 68.3367 187.83 66.95C195.543 62.8767 201.783 60.19 206.55 58.89C207.763 58.63 208.976 58.3267 210.19 57.98C211.75 57.5467 212.79 56.94 213.31 56.16C216.17 52.26 219.766 47.84 224.1 42.9C227.653 38.6533 231.163 34.4067 234.63 30.16C238.876 24.96 242.56 20.9733 245.68 18.2C251.4 12.8267 255.083 10.14 256.73 10.14C257.25 10.14 257.51 10.4 257.51 10.92ZM374.51 12.61C374.51 9.23001 371.39 6.76001 365.15 5.20001C360.99 4.07334 356.353 3.51 351.24 3.51C343.7 3.51 335.25 4.63667 325.89 6.89001C315.836 9.31667 307.906 12.35 302.1 15.99C301.493 16.4233 301.19 16.77 301.19 17.03C301.19 17.3767 301.796 17.7233 303.01 18.07C316.443 21.71 328.663 23.53 339.67 23.53C344.003 23.53 348.423 23.4 352.93 23.14C357.176 22.88 361.423 22.0133 365.67 20.54C371.563 18.46 374.51 15.8167 374.51 12.61ZM226.57 14.17C226.57 10.4433 224.62 8.58 220.72 8.58C216.733 8.58 211.923 10.4433 206.29 14.17C202.996 16.25 199.27 19.63 195.11 24.31C193.723 25.7833 192.163 28.6867 190.43 33.02C189.91 34.4067 189.65 35.62 189.65 36.66C189.65 39.6067 191.513 41.08 195.24 41.08C197.493 41.08 199.703 40.69 201.87 39.91C206.896 38.09 210.103 36.8333 211.49 36.14C214.176 34.6667 216.95 32.4567 219.81 29.51C224.316 24.9167 226.57 19.8033 226.57 14.17ZM209.93 61.88L209.8 61.49C209.713 61.49 209.54 61.49 209.28 61.49C207.72 61.49 203.82 62.8333 197.58 65.52C191.946 67.9467 186.53 71.24 181.33 75.4C179.336 77.0467 178.34 78.7367 178.34 80.47C178.34 82.03 179.423 82.81 181.59 82.81C183.236 82.81 185.62 82.3767 188.74 81.51C193.16 80.2967 198.49 76.2667 204.73 69.42C208.11 65.6933 209.843 63.18 209.93 61.88ZM278.532 63.44C278.532 64.5667 273.895 68.5967 264.622 75.53C262.369 77.1767 258.902 79.3433 254.222 82.03C252.142 82.8967 250.582 83.33 249.542 83.33C247.982 83.33 246.422 82.55 244.862 80.99C243.389 79.43 242.652 77.87 242.652 76.31C242.652 74.23 244.082 71.9333 246.942 69.42C249.802 66.9067 251.232 65.6067 251.232 65.52C251.232 64.1333 250.625 63.44 249.412 63.44C248.632 63.44 246.682 64.74 243.562 67.34C240.529 69.8533 238.492 71.11 237.452 71.11C236.759 71.11 236.412 70.8933 236.412 70.46C236.412 70.5467 238.622 68.6833 243.042 64.87C246.855 61.6633 249.412 58.9767 250.712 56.81C251.232 55.4233 251.795 54.0367 252.402 52.65C253.182 50.9167 254.265 50.05 255.652 50.05C256.259 50.05 256.995 50.44 257.862 51.22C258.729 51.9133 259.162 52.5633 259.162 53.17C259.162 53.95 258.685 54.9033 257.732 56.03C256.779 57.1567 256.302 58.0233 256.302 58.63C256.302 59.5833 257.039 60.3633 258.512 60.97C259.985 61.49 260.722 62.3133 260.722 63.44C260.722 63.8733 260.462 64.2633 259.942 64.61C258.989 65.3033 257.602 66.7767 255.782 69.03C253.962 71.1967 252.922 72.7567 252.662 73.71C252.489 74.5767 252.402 75.27 252.402 75.79C252.402 77.1767 253.009 77.87 254.222 77.87C257.255 77.87 264.579 73.1033 276.192 63.57C276.799 63.05 277.319 62.79 277.752 62.79C278.272 62.79 278.532 63.0067 278.532 63.44ZM304.436 63.44C304.436 63.96 303.352 65.1733 301.186 67.08C295.726 71.8467 291.219 75.27 287.666 77.35C282.292 80.47 276.962 82.03 271.676 82.03C267.256 82.03 265.046 79.82 265.046 75.4C265.046 74.0133 266.042 72.15 268.036 69.81C270.029 67.3833 272.109 64.9567 274.276 62.53C276.442 60.0167 278.912 57.98 281.686 56.42C285.672 54.1667 288.272 53.04 289.486 53.04C290.959 53.04 291.696 53.9067 291.696 55.64C291.696 59.28 289.659 62.6167 285.586 65.65C281.599 68.5967 278.262 70.5033 275.576 71.37C274.969 71.63 274.622 71.8033 274.536 71.89C274.536 71.89 274.449 72.1933 274.276 72.8C273.582 74.5333 273.236 75.5733 273.236 75.92C273.236 77.3067 274.449 78 276.876 78C279.562 78 282.812 77.0033 286.626 75.01C288.879 73.7967 294.036 69.9833 302.096 63.57C302.702 63.05 303.222 62.79 303.656 62.79C304.176 62.79 304.436 63.0067 304.436 63.44ZM286.366 59.15C286.366 58.9767 286.322 58.8467 286.236 58.76C286.062 58.76 285.889 58.76 285.716 58.76C284.589 58.76 282.856 59.8433 280.516 62.01C278.176 64.09 277.006 65.65 277.006 66.69C277.006 66.95 277.179 67.08 277.526 67.08C278.219 67.08 279.519 66.43 281.426 65.13C283.419 63.83 284.676 62.8333 285.196 62.14C285.976 60.84 286.366 59.8433 286.366 59.15ZM330.588 63.44C330.588 63.96 329.505 65.1733 327.338 67.08C321.878 71.8467 317.371 75.27 313.818 77.35C308.445 80.47 303.115 82.03 297.828 82.03C293.408 82.03 291.198 79.82 291.198 75.4C291.198 74.0133 292.195 72.15 294.188 69.81C296.181 67.3833 298.261 64.9567 300.428 62.53C302.595 60.0167 305.065 57.98 307.838 56.42C311.825 54.1667 314.425 53.04 315.638 53.04C317.111 53.04 317.848 53.9067 317.848 55.64C317.848 59.28 315.811 62.6167 311.738 65.65C307.751 68.5967 304.415 70.5033 301.728 71.37C301.121 71.63 300.775 71.8033 300.688 71.89C300.688 71.89 300.601 72.1933 300.428 72.8C299.735 74.5333 299.388 75.5733 299.388 75.92C299.388 77.3067 300.601 78 303.028 78C305.715 78 308.965 77.0033 312.778 75.01C315.031 73.7967 320.188 69.9833 328.248 63.57C328.855 63.05 329.375 62.79 329.808 62.79C330.328 62.79 330.588 63.0067 330.588 63.44ZM312.518 59.15C312.518 58.9767 312.475 58.8467 312.388 58.76C312.215 58.76 312.041 58.76 311.868 58.76C310.741 58.76 309.008 59.8433 306.668 62.01C304.328 64.09 303.158 65.65 303.158 66.69C303.158 66.95 303.331 67.08 303.678 67.08C304.371 67.08 305.671 66.43 307.578 65.13C309.571 63.83 310.828 62.8333 311.348 62.14C312.128 60.84 312.518 59.8433 312.518 59.15ZM394.44 7.28C394.44 7.88667 393.834 9.1 392.62 10.92C391.234 13 390.41 14.3433 390.15 14.95C388.33 17.81 386.12 21.2767 383.52 25.35C381.787 28.73 379.187 32.9767 375.72 38.09C372.6 41.2967 370.694 43.7667 370 45.5C369.394 47.2333 366.88 50.4833 362.46 55.25C360.554 57.33 358.214 60.2767 355.44 64.09C351.974 68.77 350.24 71.8033 350.24 73.19C350.24 75.4433 351.194 76.57 353.1 76.57C354.834 76.57 358.604 74.2733 364.41 69.68C370.304 65.0867 373.467 62.79 373.9 62.79C374.334 62.79 374.55 63.0067 374.55 63.44C374.55 64.3067 371.56 67.1233 365.58 71.89C359.947 76.4833 356.307 79.1267 354.66 79.82C352.06 81.0333 349.807 81.64 347.9 81.64C346.6 81.64 345.43 81.25 344.39 80.47C343.35 79.69 342.83 78.6933 342.83 77.48C342.83 77.22 342.744 77.09 342.57 77.09C342.397 77.09 340.62 78 337.24 79.82C333.947 81.64 331.044 82.55 328.53 82.55C322.897 82.55 320.08 80.6867 320.08 76.96C320.08 74.36 322.16 70.5467 326.32 65.52C328.4 62.92 331.737 60.1467 336.33 57.2C341.357 53.9933 345.257 52.39 348.03 52.39C349.07 52.39 350.24 52.9967 351.54 54.21C352.84 55.4233 353.664 56.03 354.01 56.03C354.617 56.03 355.224 55.64 355.83 54.86C355.83 54.7733 356.914 52.9967 359.08 49.53C363.587 42.9433 370.087 32.9767 378.58 19.63C379.62 17.81 380.704 15.9467 381.83 14.04C382.957 12.1333 384.214 10.53 385.6 9.23001C389.5 5.59 391.71 3.77 392.23 3.77C393.704 3.77 394.44 4.94 394.44 7.28ZM350.63 59.67C350.63 58.9767 350.284 58.2833 349.59 57.59C348.897 56.81 348.204 56.42 347.51 56.42C346.73 56.42 345.387 56.8533 343.48 57.72C341.92 58.4133 339.84 60.2767 337.24 63.31C336.46 64.5233 335.377 66.3433 333.99 68.77C331.824 72.41 330.74 74.5767 330.74 75.27C330.74 75.9633 331 76.6567 331.52 77.35C332.04 77.9567 332.647 78.26 333.34 78.26C334.467 78.26 337.63 76.18 342.83 72.02C344.65 70.6333 345.994 69.16 346.86 67.6C347.814 65.9533 348.724 64.2633 349.59 62.53C350.284 61.4033 350.63 60.45 350.63 59.67ZM408.859 63.44C408.859 64.3067 406.952 66.2133 403.139 69.16C399.672 71.8467 397.289 73.4067 395.989 73.84C395.382 74.0133 394.732 74.1 394.039 74.1C392.479 74.1 391.092 73.71 389.879 72.93C388.752 72.15 388.276 71.76 388.449 71.76C387.929 71.76 387.192 72.4533 386.239 73.84C385.026 75.8333 382.859 77.87 379.739 79.95C376.619 82.03 373.932 83.07 371.679 83.07C366.132 83.07 363.359 80.7733 363.359 76.18C363.359 74.1867 365.959 70.2867 371.159 64.48C374.452 60.84 378.049 58.11 381.949 56.29C383.162 55.5967 384.419 54.9033 385.719 54.21C387.106 53.43 388.319 53.04 389.359 53.04C390.486 53.04 391.352 53.43 391.959 54.21C393.952 56.9833 394.949 58.63 394.949 59.15C394.949 59.3233 394.906 59.67 394.819 60.19C394.732 60.6233 394.689 60.97 394.689 61.23C394.689 61.49 394.732 61.88 394.819 62.4C394.906 62.92 394.949 63.31 394.949 63.57C394.949 64.6967 394.559 65.6933 393.779 66.56C393.086 67.4267 392.739 68.0333 392.739 68.38C392.739 69.7667 393.649 70.46 395.469 70.46C397.116 70.46 399.499 69.2033 402.619 66.69C405.826 64.09 407.646 62.79 408.079 62.79C408.599 62.79 408.859 63.0067 408.859 63.44ZM388.449 59.02C388.449 58.3267 387.886 57.98 386.759 57.98C386.326 57.98 385.719 58.11 384.939 58.37C383.552 58.89 381.386 61.23 378.439 65.39C375.492 69.55 374.019 72.54 374.019 74.36C374.019 76.2667 374.886 77.22 376.619 77.22C378.179 77.22 380.129 76.05 382.469 73.71C384.462 71.7167 385.892 69.8533 386.759 68.12C387.106 67.34 387.279 66.4733 387.279 65.52C387.279 65.26 387.236 64.9133 387.149 64.48C387.062 63.96 387.019 63.57 387.019 63.31C387.019 62.27 387.236 61.3167 387.669 60.45C388.189 59.5833 388.449 59.1067 388.449 59.02ZM477.707 63.44C477.707 64.5667 473.374 68.51 464.707 75.27C462.887 76.6567 461.717 77.5233 461.197 77.87C459.984 78.5633 458.597 79.1267 457.037 79.56C452.531 80.9467 449.931 81.64 449.237 81.64C448.371 81.64 447.331 81.0767 446.117 79.95C444.904 78.8233 444.297 77.8267 444.297 76.96C444.297 76.0933 444.774 74.8367 445.727 73.19C446.767 71.5433 447.721 70.3733 448.587 69.68C449.541 68.9867 451.014 67.47 453.007 65.13C455.347 62.53 456.517 60.8833 456.517 60.19C456.517 59.4967 456.084 59.15 455.217 59.15C453.831 59.15 451.837 59.9733 449.237 61.62C446.637 63.18 444.861 64.5667 443.907 65.78C442.521 67.5133 440.051 70.2433 436.497 73.97C432.597 78.0433 430.171 80.3833 429.217 80.99C428.264 81.5967 427.484 81.9 426.877 81.9C426.011 81.9 425.101 81.51 424.147 80.73C423.194 80.0367 422.717 79.3 422.717 78.52C422.717 78.0867 422.934 77.6967 423.367 77.35C424.927 75.8767 427.224 73.58 430.257 70.46C431.037 69.42 432.251 67.6433 433.897 65.13C435.804 62.1833 436.757 60.4067 436.757 59.8C436.757 59.54 436.454 59.41 435.847 59.41C434.894 59.41 433.897 59.6267 432.857 60.06C429.477 61.5333 426.011 63.6133 422.457 66.3C421.851 66.82 419.121 69.5933 414.267 74.62C409.934 79.1267 407.421 81.4233 406.727 81.51C406.121 81.5967 405.471 81.64 404.777 81.64C402.524 81.64 401.397 81.2067 401.397 80.34C401.397 78.9533 403.824 75.66 408.677 70.46C413.617 65.26 416.087 61.9233 416.087 60.45C416.087 60.1033 415.871 59.93 415.437 59.93C414.484 59.93 412.101 61.5333 408.287 64.74C404.474 67.86 402.351 69.42 401.917 69.42C401.484 69.42 401.267 69.0733 401.267 68.38C401.267 68.0333 401.744 67.47 402.697 66.69C405.557 64.35 409.804 60.8833 415.437 56.29C416.911 55.1633 418.514 54.6 420.247 54.6C421.027 54.6 421.937 54.7733 422.977 55.12C424.364 55.64 425.057 56.2033 425.057 56.81C425.057 57.1567 424.711 57.98 424.017 59.28C423.324 60.58 422.977 61.36 422.977 61.62C423.064 61.62 423.151 61.62 423.237 61.62C423.324 61.62 425.534 60.32 429.867 57.72C434.287 55.12 437.234 53.82 438.707 53.82C439.487 53.82 440.484 54.2533 441.697 55.12C442.911 55.9 443.517 56.68 443.517 57.46C443.517 57.98 443.257 58.8467 442.737 60.06C442.304 61.1867 442.087 61.9233 442.087 62.27C442.087 62.3567 442.131 62.4433 442.217 62.53C441.957 62.53 443.777 61.3167 447.677 58.89C451.577 56.4633 455.521 55.25 459.507 55.25C462.454 55.25 463.927 56.7233 463.927 59.67C463.927 62.9633 460.504 67.47 453.657 73.19C452.964 73.7967 452.617 74.3167 452.617 74.75C452.617 75.8767 453.527 76.44 455.347 76.44C457.861 76.44 462.021 74.1867 467.827 69.68C473.634 65.0867 476.711 62.79 477.057 62.79C477.491 62.79 477.707 63.0067 477.707 63.44ZM612.091 26.52C612.091 30.42 608.581 35.5333 601.561 41.86C598.701 44.46 594.541 46.4967 589.081 47.97C587.001 48.23 584.011 48.8367 580.111 49.79C579.677 49.9633 579.461 50.1367 579.461 50.31C579.461 50.3967 579.721 50.96 580.241 52C580.761 52.9533 581.021 53.9067 581.021 54.86C581.021 56.2467 580.284 58.76 578.811 62.4C577.424 66.04 576.254 68.51 575.301 69.81C573.827 71.8033 573.004 73.0167 572.831 73.45C572.224 74.5767 571.921 76.0067 571.921 77.74C571.921 79.9067 572.744 80.99 574.391 80.99C577.684 80.99 582.624 78.6933 589.211 74.1C589.731 73.7533 594.281 70.2433 602.861 63.57C603.467 63.05 603.987 62.79 604.421 62.79C604.941 62.79 605.201 63.0067 605.201 63.44C605.201 63.96 602.471 66.56 597.011 71.24C594.584 73.32 592.201 75.4 589.861 77.48C587.087 79.7333 584.401 81.51 581.801 82.81C577.294 85.15 574.261 86.32 572.701 86.32C571.747 86.32 570.837 86.1033 569.971 85.67C568.064 84.89 566.894 84.2833 566.461 83.85C566.114 83.4167 565.681 82.2467 565.161 80.34C564.814 78.9533 564.641 77.61 564.641 76.31C564.641 73.8833 565.897 70.2 568.411 65.26C570.924 60.2333 572.181 56.8967 572.181 55.25C572.181 53.69 571.531 52.4333 570.231 51.48C569.971 51.48 568.844 52.65 566.851 54.99C564.424 57.85 561.304 61.1 557.491 64.74C555.584 66.7333 553.677 68.7267 551.771 70.72C548.997 73.4067 546.917 75.0533 545.531 75.66C543.624 76.7 540.677 78.13 536.691 79.95C536.084 80.2967 535.174 80.8167 533.961 81.51C533.094 81.9433 531.014 82.5067 527.721 83.2C523.907 84.1533 520.614 84.63 517.841 84.63C510.647 84.63 507.051 81.1633 507.051 74.23C507.051 68.4233 508.177 62.4 510.431 56.16C512.077 51.3067 514.244 47.1467 516.931 43.68C519.184 40.9067 522.521 37.6567 526.941 33.93C538.814 23.9633 553.504 16.4667 571.011 11.44C575.344 10.2267 581.541 9.62 589.601 9.62C590.987 9.62 592.591 8.75334 594.411 7.02001C596.837 4.59334 598.311 3.20667 598.831 2.86001C601.431 1.21334 602.861 0.390006 603.121 0.390006C603.814 0.390006 604.161 0.736673 604.161 1.43001C604.161 2.64334 603.207 4.16001 601.301 5.98C599.394 7.80001 598.441 9.01334 598.441 9.62C598.441 9.88001 598.614 10.01 598.961 10.01C601.214 10.01 603.294 11.2233 605.201 13.65C606.674 15.6433 608.191 17.6367 609.751 19.63C611.311 21.97 612.091 24.2667 612.091 26.52ZM602.341 23.4C602.341 20.9733 601.777 18.85 600.651 17.03C599.264 14.8633 597.401 13.78 595.061 13.78C594.714 13.78 594.411 13.8667 594.151 14.04C593.631 14.3 590.121 19.2833 583.621 28.99C581.541 31.59 578.637 35.62 574.911 41.08C573.871 42.9 573.351 44.07 573.351 44.59C573.351 45.37 574.044 46.02 575.431 46.54C576.471 46.8867 577.467 47.06 578.421 47.06C580.154 47.06 583.014 46.1933 587.001 44.46C590.987 42.64 594.107 39.78 596.361 35.88C597.574 33.8867 598.831 31.8933 600.131 29.9C601.604 27.2133 602.341 25.0467 602.341 23.4ZM588.041 13.91C588.041 13.65 587.824 13.52 587.391 13.52C586.784 13.52 584.531 13.7367 580.631 14.17C573.091 14.95 564.511 17.3333 554.891 21.32C544.231 25.74 533.701 32.5867 523.301 41.86C521.307 43.5067 519.054 46.4967 516.541 50.83C515.067 53.3433 513.811 57.0267 512.771 61.88C511.904 66.3867 511.471 70.33 511.471 73.71C511.471 76.4833 511.991 78.4333 513.031 79.56C514.157 80.6867 516.107 81.25 518.881 81.25C525.207 81.25 531.924 78.78 539.031 73.84C544.491 69.94 550.211 63.6567 556.191 54.99C559.397 49.79 564.511 42.2933 571.531 32.5C574.564 29.2067 579.114 24.2233 585.181 17.55C587.087 15.3833 588.041 14.17 588.041 13.91ZM642.269 15.34C642.269 17.0733 641.446 18.8933 639.799 20.8C638.152 22.62 636.419 23.53 634.599 23.53C632.952 23.53 632.129 22.62 632.129 20.8C632.129 20.28 632.692 18.8933 633.819 16.64C634.512 15.2533 635.032 14.43 635.379 14.17C635.986 13.5633 636.939 13.26 638.239 13.26C640.926 13.26 642.269 13.9533 642.269 15.34ZM626.149 63.44C626.149 64.3067 621.902 68.1633 613.409 75.01C609.162 78.39 605.826 80.5567 603.399 81.51C600.972 82.4633 599.109 82.94 597.809 82.94C596.769 82.94 595.729 82.4633 594.689 81.51C593.736 80.6433 593.259 79.6467 593.259 78.52C593.259 77.6533 593.606 76.6567 594.299 75.53C594.386 75.3567 595.642 73.4067 598.069 69.68C598.676 68.38 599.846 66.6033 601.579 64.35C602.012 64.0033 603.616 61.9233 606.389 58.11C608.642 54.99 610.376 53.43 611.589 53.43C613.496 53.43 614.449 54.2967 614.449 56.03C614.449 56.9833 614.016 57.9367 613.149 58.89C611.416 60.8833 609.466 63.5267 607.299 66.82C604.612 70.8933 603.269 73.6667 603.269 75.14C603.269 75.92 603.962 76.31 605.349 76.31C606.909 76.31 613.106 72.0633 623.939 63.57C624.459 63.05 624.979 62.79 625.499 62.79C625.932 62.79 626.149 63.0067 626.149 63.44ZM672.824 63.44C672.824 64.48 668.317 68.5533 659.304 75.66C656.357 77.9133 653.844 79.43 651.764 80.21C647.084 81.8567 644.137 82.68 642.924 82.68C641.451 82.68 639.847 81.4667 638.114 79.04C637.681 78.6067 637.464 78.0867 637.464 77.48C637.464 75.7467 639.717 72.5833 644.224 67.99C648.817 63.3967 651.114 60.7533 651.114 60.06C651.114 59.3667 650.334 59.02 648.774 59.02C647.387 59.02 645.654 59.7133 643.574 61.1C642.014 62.14 640.411 63.2233 638.764 64.35C636.164 65.91 633.781 68.2067 631.614 71.24C629.967 73.2333 627.757 76.3533 624.984 80.6C624.464 81.5533 623.641 82.03 622.514 82.03C619.394 82.03 617.834 81.25 617.834 79.69C617.834 78.9967 618.224 78.1733 619.004 77.22C620.824 75.0533 623.381 71.6733 626.674 67.08C626.847 66.82 627.627 65.7367 629.014 63.83C630.227 62.1833 630.834 61.23 630.834 60.97C630.834 60.7967 630.747 60.6667 630.574 60.58C630.487 60.58 628.667 62.0533 625.114 65C621.561 67.9467 619.567 69.42 619.134 69.42C618.701 69.42 618.484 69.0733 618.484 68.38C618.484 68.0333 618.961 67.47 619.914 66.69C620.954 65.8233 623.727 63.3533 628.234 59.28C629.101 58.1533 630.574 56.7233 632.654 54.99C633.521 54.47 634.301 54.21 634.994 54.21C635.774 54.21 636.511 54.6433 637.204 55.51C637.897 56.3767 638.244 57.2 638.244 57.98C638.244 58.5 637.897 59.2367 637.204 60.19C636.597 61.0567 636.294 61.62 636.294 61.88C636.294 62.14 636.424 62.27 636.684 62.27C637.117 62.27 639.241 61.0567 643.054 58.63C646.954 56.2033 650.377 54.99 653.324 54.99C654.537 54.99 655.621 55.5967 656.574 56.81C657.614 58.0233 658.134 59.2367 658.134 60.45C658.134 62.4433 656.011 65.65 651.764 70.07C647.517 74.49 645.394 77.0033 645.394 77.61L645.524 77.87C645.871 78.2167 646.391 78.39 647.084 78.39C649.857 78.39 652.761 77.2633 655.794 75.01C660.474 71.5433 665.414 67.73 670.614 63.57C671.221 63.05 671.741 62.79 672.174 62.79C672.607 62.79 672.824 63.0067 672.824 63.44ZM710.57 63.44C710.57 64.3933 707.32 67.4267 700.82 72.54C695.36 76.8733 691.373 79.8633 688.86 81.51C684.613 84.2833 681.58 86.71 679.76 88.79C677.68 92.17 674.733 96.8067 670.92 102.7C666.066 110.24 662.946 115.007 661.56 117C657.833 122.287 654.193 126.62 650.64 130C644.833 135.547 640.326 138.32 637.12 138.32C635.646 138.32 634.91 137.323 634.91 135.33C634.91 130.477 636.383 125.797 639.33 121.29C641.41 118.257 644.79 114.617 649.47 110.37C651.03 108.723 653.543 106.47 657.01 103.61C658.57 102.57 660.433 101.01 662.6 98.93C665.286 96.4167 667.106 94.77 668.06 93.99C671.96 90.9567 674.733 87.6633 676.38 84.11C678.46 79.69 679.5 77.7833 679.5 78.39C679.5 78.3033 679.456 78.26 679.37 78.26C679.543 78.26 678.2 78.9533 675.34 80.34C672.48 81.7267 670.01 82.42 667.93 82.42C666.283 82.42 664.853 81.5533 663.64 79.82C662.513 78.1733 661.95 76.4833 661.95 74.75C661.95 72.15 662.816 69.9833 664.55 68.25C667.67 65.0433 671.136 62.1833 674.95 59.67C679.89 56.3767 683.963 54.73 687.17 54.73C688.816 54.73 689.856 55.3367 690.29 56.55C690.463 57.2433 690.766 57.59 691.2 57.59C691.633 57.59 692.326 56.9833 693.28 55.77C694.32 54.5567 695.663 53.95 697.31 53.95C699.476 53.95 700.56 54.73 700.56 56.29C700.56 56.9833 699.866 58.4133 698.48 60.58C697.18 62.7467 696.183 64.1767 695.49 64.87C692.803 67.8167 690.94 70.1567 689.9 71.89C688.686 73.97 687.256 76.6567 685.61 79.95L685.48 80.08C685.566 80.1667 685.653 80.21 685.74 80.21C686.433 80.21 693.973 74.6633 708.36 63.57C708.966 63.05 709.486 62.79 709.92 62.79C710.353 62.79 710.57 63.0067 710.57 63.44ZM687.69 61.75C687.69 60.0167 686.996 59.15 685.61 59.15C685.263 59.15 684.743 59.3667 684.05 59.8C683.356 60.1467 682.923 60.3633 682.75 60.45C680.583 61.1433 677.94 63.3967 674.82 67.21C671.7 70.9367 670.14 73.9267 670.14 76.18C670.14 77.48 670.833 78.13 672.22 78.13C674.213 78.13 677.073 76.7433 680.8 73.97C682.186 72.8433 684.093 70.0267 686.52 65.52C687.3 64.0467 687.69 62.79 687.69 61.75ZM667.93 98.67C667.843 98.41 667.713 98.28 667.54 98.28C667.8 98.28 666.716 99.1033 664.29 100.75C659.176 104.217 653.63 109.243 647.65 115.83C643.49 120.51 640.803 124.627 639.59 128.18C638.983 129.913 638.68 131.127 638.68 131.82C638.68 132.427 638.853 132.73 639.2 132.73C639.893 132.73 641.973 131.17 645.44 128.05C647.433 126.317 651.593 121.42 657.92 113.36C664.593 104.867 667.93 99.97 667.93 98.67Z" fill="white"/>
</svg>
