<svg width="1058" height="154" viewBox="0 0 1058 154" fill="none" xmlns="http://www.w3.org/2000/svg">
<path fill-rule="evenodd" clip-rule="evenodd" d="M1058 0H0L56.8213 76.9857L0 154H1058L1001.18 76.9857L1058 0Z" fill="url(#paint0_linear_3032_4721)"/>
<path fill-rule="evenodd" clip-rule="evenodd" d="M110 105L117.5 83.8063L140 83.2262L122.143 69.5506L128.549 48L110 60.7385L91.4731 48L97.8793 69.5506L80 83.2262L102.5 83.8063L110 105Z" fill="url(#paint1_linear_3032_4721)"/>
<path d="M173.362 31.3455V30.0693H198.455V31.3455H196.924C195.532 31.3455 194.418 31.587 193.583 32.0699C193.003 32.3918 192.539 32.9437 192.191 33.7255C191.935 34.2774 191.808 35.7261 191.808 38.0717V60.975C191.808 65.4591 191.355 68.7245 190.451 70.7711C189.546 72.7946 187.933 74.4963 185.613 75.876C183.316 77.2327 180.543 77.9111 177.295 77.9111C173.327 77.9111 170.114 76.8763 167.654 74.8067C165.218 72.7372 164 70.4491 164 67.9426C164 66.333 164.499 65.0337 165.497 64.0449C166.494 63.0331 167.712 62.5272 169.151 62.5272C170.566 62.5272 171.75 62.9756 172.701 63.8724C173.675 64.7693 174.163 65.873 174.163 67.1838C174.163 67.8276 174.081 68.391 173.919 68.8739C173.826 69.1039 173.455 69.6903 172.805 70.6331C172.179 71.5529 171.866 72.2083 171.866 72.5992C171.866 73.1971 172.167 73.7145 172.77 74.1514C173.652 74.7952 174.801 75.1172 176.216 75.1172C177.214 75.1172 178.037 74.8642 178.687 74.3583C179.337 73.8524 179.789 73.0706 180.044 72.0128C180.323 70.932 180.462 67.9541 180.462 63.0791V38.0717C180.462 35.6801 180.323 34.1855 180.044 33.5876C179.789 32.9897 179.267 32.4723 178.478 32.0354C177.713 31.5755 176.668 31.3455 175.346 31.3455H173.362Z" fill="white"/>
<path d="M226.402 29.4139C233.92 29.138 240.022 31.311 244.709 35.9331C249.419 40.5552 251.774 46.3385 251.774 53.2831C251.774 59.2159 250.022 64.4358 246.519 68.9429C241.878 74.9217 235.324 77.9111 226.855 77.9111C218.363 77.9111 211.797 75.0597 207.156 69.3568C203.49 64.8498 201.657 59.5033 201.657 53.3176C201.657 46.373 204.035 40.5897 208.792 35.9676C213.572 31.3225 219.442 29.138 226.402 29.4139ZM226.82 31.6215C222.504 31.6215 219.221 33.806 216.971 38.1751C215.138 41.7624 214.221 46.9134 214.221 53.628C214.221 61.6074 215.637 67.5057 218.467 71.3229C220.439 73.9904 223.2 75.3241 226.75 75.3241C229.14 75.3241 231.136 74.7493 232.737 73.5995C234.778 72.1278 236.368 69.7823 237.505 66.5629C238.642 63.3206 239.21 59.1009 239.21 53.904C239.21 47.7182 238.63 43.0961 237.47 40.0378C236.31 36.9564 234.825 34.7833 233.015 33.5186C231.228 32.2538 229.163 31.6215 226.82 31.6215Z" fill="white"/>
<path d="M287.83 29L288.213 44.5908H286.786C286.113 40.6816 284.454 37.5428 281.809 35.1743C279.187 32.7827 276.345 31.587 273.282 31.587C270.916 31.587 269.036 32.2193 267.644 33.4841C266.275 34.7258 265.591 36.1631 265.591 37.7957C265.591 38.8305 265.835 39.7503 266.322 40.5552C266.995 41.6359 268.074 42.7052 269.559 43.763C270.649 44.5219 273.166 45.8671 277.111 47.7987C282.633 50.4892 286.357 53.0301 288.283 55.4217C290.185 57.8132 291.137 60.5496 291.137 63.631C291.137 67.5402 289.594 70.909 286.508 73.7375C283.445 76.5429 279.547 77.9456 274.814 77.9456C273.329 77.9456 271.925 77.7961 270.603 77.4972C269.28 77.1983 267.621 76.6349 265.626 75.807C264.512 75.3471 263.596 75.1172 262.876 75.1172C262.273 75.1172 261.635 75.3471 260.962 75.807C260.289 76.2669 259.744 76.9683 259.326 77.9111H258.039V60.2507H259.326C260.347 65.2177 262.308 69.0119 265.208 71.6334C268.132 74.2319 271.275 75.5311 274.64 75.5311C277.238 75.5311 279.303 74.8297 280.835 73.427C282.389 72.0243 283.167 70.3916 283.167 68.529C283.167 67.4252 282.865 66.3559 282.262 65.3212C281.682 64.2864 280.788 63.3091 279.582 62.3892C278.375 61.4464 276.241 60.2277 273.178 58.733C268.886 56.6404 265.8 54.8583 263.92 53.3866C262.041 51.9149 260.591 50.2707 259.57 48.4541C258.572 46.6374 258.073 44.6368 258.073 42.4523C258.073 38.727 259.454 35.5537 262.215 32.9322C264.976 30.3107 268.456 29 272.656 29C274.187 29 275.672 29.184 277.111 29.5519C278.201 29.8278 279.524 30.3452 281.078 31.1041C282.656 31.8399 283.758 32.2079 284.385 32.2079C284.988 32.2079 285.464 32.0239 285.812 31.656C286.16 31.288 286.485 30.4027 286.786 29H287.83Z" fill="white"/>
<path d="M313.515 54.3524V68.8394C313.515 71.231 313.643 72.7257 313.898 73.3235C314.176 73.9214 314.698 74.4503 315.464 74.9102C316.253 75.3471 317.309 75.5656 318.631 75.5656H320.197V76.8418H295.522V75.5656H297.088C298.457 75.5656 299.559 75.3241 300.394 74.8412C300.998 74.5193 301.462 73.9674 301.786 73.1856C302.042 72.6337 302.169 71.185 302.169 68.8394V38.0717C302.169 35.6801 302.042 34.1855 301.786 33.5876C301.531 32.9897 301.009 32.4723 300.22 32.0354C299.455 31.5755 298.41 31.3455 297.088 31.3455H295.522V30.0693H320.197V31.3455H318.631C317.262 31.3455 316.16 31.587 315.325 32.0699C314.722 32.3918 314.246 32.9437 313.898 33.7255C313.643 34.2774 313.515 35.7261 313.515 38.0717V51.317H330.186V38.0717C330.186 35.6801 330.058 34.1855 329.803 33.5876C329.548 32.9897 329.026 32.4723 328.237 32.0354C327.448 31.5755 326.392 31.3455 325.07 31.3455H323.538V30.0693H348.179V31.3455H346.648C345.256 31.3455 344.154 31.587 343.342 32.0699C342.738 32.3918 342.263 32.9437 341.915 33.7255C341.659 34.2774 341.532 35.7261 341.532 38.0717V68.8394C341.532 71.231 341.659 72.7257 341.915 73.3235C342.17 73.9214 342.692 74.4503 343.481 74.9102C344.27 75.3471 345.325 75.5656 346.648 75.5656H348.179V76.8418H323.538V75.5656H325.07C326.462 75.5656 327.564 75.3241 328.376 74.8412C328.979 74.5193 329.455 73.9674 329.803 73.1856C330.058 72.6337 330.186 71.185 330.186 68.8394V54.3524H313.515Z" fill="white"/>
<path d="M351.172 30.0693H375.535V31.3455H374.317C372.484 31.3455 371.219 31.541 370.523 31.9319C369.85 32.2998 369.363 32.8172 369.061 33.4841C368.783 34.151 368.644 35.8181 368.644 38.4856V61.389C368.644 65.5741 368.957 68.345 369.583 69.7018C370.233 71.0585 371.289 72.1853 372.75 73.0821C374.212 73.9789 376.057 74.4273 378.284 74.4273C380.836 74.4273 383.006 73.8639 384.792 72.7372C386.602 71.5874 387.948 70.0122 388.83 68.0116C389.734 66.011 390.187 62.5272 390.187 57.5602V38.4856C390.187 36.393 389.966 34.8983 389.526 34.0015C389.085 33.1047 388.528 32.4838 387.855 32.1389C386.811 31.61 385.338 31.3455 383.435 31.3455V30.0693H399.758V31.3455H398.783C397.461 31.3455 396.359 31.61 395.477 32.1389C394.595 32.6678 393.957 33.4611 393.563 34.5189C393.261 35.2547 393.11 36.577 393.11 38.4856V56.2495C393.11 61.7454 392.739 65.7121 391.997 68.1496C391.277 70.5871 389.502 72.8291 386.672 74.8757C383.841 76.9223 379.978 77.9456 375.082 77.9456C370.999 77.9456 367.843 77.4052 365.616 76.3244C362.576 74.8527 360.43 72.9671 359.177 70.6676C357.924 68.368 357.298 65.2752 357.298 61.389V38.4856C357.298 35.7951 357.147 34.128 356.845 33.4841C356.544 32.8172 356.022 32.2883 355.279 31.8974C354.537 31.5065 353.168 31.3225 351.172 31.3455V30.0693Z" fill="white"/>
<path d="M430.663 63.5275H413.992L412.009 68.0806C411.359 69.5983 411.034 70.8515 411.034 71.8403C411.034 73.1511 411.568 74.1169 412.635 74.7378C413.262 75.1057 414.804 75.3816 417.264 75.5656V76.8418H401.568V75.5656C403.261 75.3126 404.653 74.6228 405.744 73.496C406.834 72.3462 408.18 69.9892 409.781 66.4249L426.661 29.1035H427.322L444.341 67.4597C445.965 71.093 447.299 73.381 448.343 74.3238C449.132 75.0367 450.246 75.4506 451.684 75.5656V76.8418H428.853V75.5656H429.793C431.626 75.5656 432.914 75.3126 433.656 74.8067C434.167 74.4388 434.422 73.9099 434.422 73.2201C434.422 72.8061 434.352 72.3807 434.213 71.9438C434.167 71.7369 433.819 70.8745 433.169 69.3568L430.663 63.5275ZM429.48 60.975L422.45 44.8668L415.21 60.975H429.48Z" fill="white"/>
<path d="M471.279 76.8418V75.5656H472.845C474.214 75.5656 475.258 75.3586 475.977 74.9447C476.72 74.5078 477.265 73.9214 477.613 73.1856C477.822 72.7027 477.926 71.254 477.926 68.8394V38.0717C477.926 35.6801 477.798 34.1855 477.543 33.5876C477.288 32.9897 476.766 32.4723 475.977 32.0354C475.211 31.5755 474.167 31.3455 472.845 31.3455H471.279V30.0693H492.404C498.042 30.0693 502.578 30.8281 506.012 32.3458C510.212 34.2084 513.391 37.0254 515.549 40.7966C517.73 44.5679 518.82 48.8335 518.82 53.5935C518.82 56.8819 518.286 59.9172 517.219 62.6997C516.152 65.4591 514.771 67.7472 513.077 69.5638C511.384 71.3574 509.423 72.8061 507.196 73.9099C504.991 74.9907 502.288 75.83 499.087 76.4279C497.671 76.7039 495.444 76.8418 492.404 76.8418H471.279ZM489.272 32.7252V69.2189C489.272 71.1505 489.365 72.3347 489.55 72.7716C489.736 73.2086 490.049 73.542 490.49 73.7719C491.117 74.1169 492.021 74.2893 493.205 74.2893C497.08 74.2893 500.038 72.9786 502.08 70.3571C504.864 66.8159 506.256 61.32 506.256 53.8695C506.256 47.8677 505.305 43.0732 503.402 39.4859C501.894 36.6804 499.957 34.7718 497.59 33.76C495.919 33.0472 493.147 32.7023 489.272 32.7252Z" fill="white"/>
<path d="M530.758 66.218C532.382 66.218 533.751 66.7814 534.864 67.9081C536.001 69.0349 536.57 70.3916 536.57 71.9783C536.57 73.565 536.001 74.9217 534.864 76.0485C533.727 77.1523 532.359 77.7042 530.758 77.7042C529.157 77.7042 527.788 77.1523 526.651 76.0485C525.537 74.9217 524.98 73.565 524.98 71.9783C524.98 70.3916 525.537 69.0349 526.651 67.9081C527.788 66.7814 529.157 66.218 530.758 66.218Z" fill="white"/>
<path d="M587.139 63.5275H570.468L568.484 68.0806C567.835 69.5983 567.51 70.8515 567.51 71.8403C567.51 73.1511 568.044 74.1169 569.111 74.7378C569.737 75.1057 571.28 75.3816 573.74 75.5656V76.8418H558.043V75.5656C559.737 75.3126 561.129 74.6228 562.22 73.496C563.31 72.3462 564.656 69.9892 566.257 66.4249L583.137 29.1035H583.798L600.817 67.4597C602.441 71.093 603.775 73.381 604.819 74.3238C605.608 75.0367 606.722 75.4506 608.16 75.5656V76.8418H585.329V75.5656H586.269C588.102 75.5656 589.39 75.3126 590.132 74.8067C590.643 74.4388 590.898 73.9099 590.898 73.2201C590.898 72.8061 590.828 72.3807 590.689 71.9438C590.642 71.7369 590.294 70.8745 589.645 69.3568L587.139 63.5275ZM585.956 60.975L578.925 44.8668L571.686 60.975H585.956Z" fill="white"/>
<path d="M653.996 60.4231L652.221 76.8418H610.318V75.5656H611.884C613.253 75.5656 614.355 75.3241 615.19 74.8412C615.794 74.5193 616.258 73.9674 616.583 73.1856C616.838 72.6337 616.965 71.185 616.965 68.8394V38.0717C616.965 35.6801 616.838 34.1855 616.583 33.5876C616.327 32.9897 615.805 32.4723 615.016 32.0354C614.251 31.5755 613.207 31.3455 611.884 31.3455H610.318V30.0693H635.481V31.3455H633.427C632.058 31.3455 630.956 31.587 630.121 32.0699C629.518 32.3918 629.042 32.9437 628.694 33.7255C628.439 34.2774 628.311 35.7261 628.311 38.0717V67.8736C628.311 70.2652 628.451 71.7943 628.729 72.4612C629.007 73.1051 629.553 73.588 630.365 73.9099C630.945 74.1169 632.349 74.2204 634.576 74.2204H638.509C641.015 74.2204 643.103 73.7834 644.773 72.9096C646.444 72.0358 647.882 70.6561 649.089 68.7705C650.319 66.8848 651.479 64.1024 652.569 60.4231H653.996Z" fill="white"/>
<path d="M701.538 60.4231L699.763 76.8418H657.859V75.5656H659.426C660.794 75.5656 661.897 75.3241 662.732 74.8412C663.335 74.5193 663.799 73.9674 664.124 73.1856C664.379 72.6337 664.507 71.185 664.507 68.8394V38.0717C664.507 35.6801 664.379 34.1855 664.124 33.5876C663.869 32.9897 663.347 32.4723 662.558 32.0354C661.792 31.5755 660.748 31.3455 659.426 31.3455H657.859V30.0693H683.022V31.3455H680.969C679.6 31.3455 678.498 31.587 677.662 32.0699C677.059 32.3918 676.584 32.9437 676.236 33.7255C675.98 34.2774 675.853 35.7261 675.853 38.0717V67.8736C675.853 70.2652 675.992 71.7943 676.27 72.4612C676.549 73.1051 677.094 73.588 677.906 73.9099C678.486 74.1169 679.89 74.2204 682.117 74.2204H686.05C688.556 74.2204 690.644 73.7834 692.315 72.9096C693.985 72.0358 695.424 70.6561 696.63 68.7705C697.86 66.8848 699.02 64.1024 700.111 60.4231H701.538Z" fill="white"/>
<path d="M730.181 75.5656V76.8418H705.505V75.5656H707.071C708.44 75.5656 709.542 75.3241 710.378 74.8412C710.981 74.5193 711.445 73.9674 711.77 73.1856C712.025 72.6337 712.153 71.185 712.153 68.8394V38.0717C712.153 35.6801 712.025 34.1855 711.77 33.5876C711.515 32.9897 710.992 32.4723 710.204 32.0354C709.438 31.5755 708.394 31.3455 707.071 31.3455H705.505V30.0693H730.181V31.3455H728.615C727.246 31.3455 726.143 31.587 725.308 32.0699C724.705 32.3918 724.229 32.9437 723.881 33.7255C723.626 34.2774 723.498 35.7261 723.498 38.0717V68.8394C723.498 71.231 723.626 72.7257 723.881 73.3235C724.16 73.9214 724.682 74.4503 725.447 74.9102C726.236 75.3471 727.292 75.5656 728.615 75.5656H730.181Z" fill="white"/>
<path d="M765.332 29L765.715 44.5908H764.288C763.615 40.6816 761.956 37.5428 759.311 35.1743C756.689 32.7827 753.847 31.587 750.784 31.587C748.418 31.587 746.538 32.2193 745.146 33.4841C743.777 34.7258 743.093 36.1631 743.093 37.7957C743.093 38.8305 743.336 39.7503 743.824 40.5552C744.496 41.6359 745.575 42.7052 747.06 43.763C748.151 44.5219 750.668 45.8671 754.613 47.7987C760.135 50.4892 763.859 53.0301 765.784 55.4217C767.687 57.8132 768.638 60.5496 768.638 63.631C768.638 67.5402 767.095 70.909 764.01 73.7375C760.947 76.5429 757.049 77.9456 752.316 77.9456C750.831 77.9456 749.427 77.7961 748.104 77.4972C746.782 77.1983 745.123 76.6349 743.128 75.807C742.014 75.3471 741.097 75.1172 740.378 75.1172C739.775 75.1172 739.137 75.3471 738.464 75.807C737.791 76.2669 737.246 76.9683 736.828 77.9111H735.54V60.2507H736.828C737.849 65.2177 739.81 69.0119 742.71 71.6334C745.633 74.2319 748.777 75.5311 752.142 75.5311C754.74 75.5311 756.805 74.8297 758.337 73.427C759.891 72.0243 760.668 70.3916 760.668 68.529C760.668 67.4252 760.367 66.3559 759.764 65.3212C759.183 64.2864 758.29 63.3091 757.084 62.3892C755.877 61.4464 753.743 60.2277 750.68 58.733C746.387 56.6404 743.302 54.8583 741.422 53.3866C739.543 51.9149 738.093 50.2707 737.072 48.4541C736.074 46.6374 735.575 44.6368 735.575 42.4523C735.575 38.727 736.956 35.5537 739.717 32.9322C742.478 30.3107 745.958 29 750.158 29C751.689 29 753.174 29.184 754.613 29.5519C755.703 29.8278 757.026 30.3452 758.58 31.1041C760.158 31.8399 761.26 32.2079 761.887 32.2079C762.49 32.2079 762.965 32.0239 763.313 31.656C763.661 31.288 763.986 30.4027 764.288 29H765.332Z" fill="white"/>
<path d="M799.056 29.4139C806.574 29.138 812.676 31.311 817.363 35.9331C822.073 40.5552 824.428 46.3385 824.428 53.2831C824.428 59.2159 822.676 64.4358 819.173 68.9429C814.532 74.9217 807.978 77.9111 799.509 77.9111C791.017 77.9111 784.451 75.0597 779.81 69.3568C776.144 64.8498 774.311 59.5033 774.311 53.3176C774.311 46.373 776.69 40.5897 781.446 35.9676C786.226 31.3225 792.096 29.138 799.056 29.4139ZM799.474 31.6215C795.159 31.6215 791.875 33.806 789.625 38.1751C787.792 41.7624 786.875 46.9134 786.875 53.628C786.875 61.6074 788.291 67.5057 791.121 71.3229C793.094 73.9904 795.855 75.3241 799.405 75.3241C801.794 75.3241 803.79 74.7493 805.391 73.5995C807.432 72.1278 809.022 69.7823 810.159 66.5629C811.296 63.3206 811.864 59.1009 811.864 53.904C811.864 47.7182 811.284 43.0961 810.124 40.0378C808.964 36.9564 807.479 34.7833 805.669 33.5186C803.883 32.2538 801.818 31.6215 799.474 31.6215Z" fill="white"/>
<path d="M844.753 30.0693L868.037 59.0779V38.9685C868.037 36.1631 867.631 34.2659 866.819 33.2771C865.705 31.9434 863.837 31.2995 861.215 31.3455V30.0693H876.807V31.3455C874.812 31.5985 873.466 31.9319 872.77 32.3458C872.097 32.7367 871.563 33.3921 871.169 34.3119C870.798 35.2087 870.612 36.7609 870.612 38.9685V77.9111H869.429L837.514 38.9685V68.7015C837.514 71.3919 838.129 73.2086 839.359 74.1514C840.612 75.0942 842.039 75.5656 843.64 75.5656H844.753V76.8418H828.013V75.5656C830.612 75.5426 832.421 75.0137 833.442 73.9789C834.463 72.9441 834.974 71.185 834.974 68.7015V35.6916L833.964 34.4499C832.967 33.2081 832.085 32.3918 831.319 32.0009C830.554 31.61 829.451 31.3915 828.013 31.3455V30.0693H844.753Z" fill="white"/>
<path d="M882.062 89.2248V87.7071C884.754 86.5574 886.703 85.0627 887.909 83.223C889.139 81.4064 889.754 79.5438 889.754 77.6352C889.754 77.2442 889.673 76.9453 889.51 76.7383C889.348 76.5544 889.186 76.4624 889.023 76.4624C888.884 76.4624 888.675 76.5429 888.397 76.7038C887.724 77.0948 886.889 77.2902 885.891 77.2902C884.522 77.2902 883.327 76.7613 882.306 75.7036C881.308 74.6458 880.81 73.404 880.81 71.9783C880.81 70.4606 881.39 69.1269 882.55 67.9771C883.71 66.8274 885.114 66.2525 886.761 66.2525C888.756 66.2525 890.462 67.0228 891.877 68.5635C893.292 70.0812 894 72.1738 894 74.8412C894 78.1296 892.991 81.05 890.972 83.6025C888.977 86.1549 886.007 88.0291 882.062 89.2248Z" fill="white"/>
<path d="M185.955 115.635H176.819L175.218 119.326C174.823 120.235 174.626 120.913 174.626 121.361C174.626 121.718 174.794 122.034 175.131 122.31C175.479 122.574 176.221 122.747 177.358 122.827V123.465H169.928V122.827C170.914 122.655 171.552 122.431 171.842 122.155C172.434 121.603 173.089 120.482 173.808 118.792L182.109 99.5444H182.718L190.932 118.999C191.593 120.562 192.19 121.58 192.724 122.051C193.269 122.511 194.023 122.77 194.986 122.827V123.465H185.676V122.827C186.616 122.781 187.248 122.626 187.573 122.362C187.909 122.097 188.078 121.775 188.078 121.396C188.078 120.89 187.846 120.091 187.382 118.999L185.955 115.635ZM185.467 114.359L181.465 104.908L177.358 114.359H185.467Z" fill="white"/>
<path d="M216.612 112.514V119.326C216.612 120.798 216.774 121.712 217.099 122.068C217.54 122.574 218.207 122.827 219.1 122.827H220.005V123.465H209.894V122.827H210.782C211.78 122.827 212.493 122.505 212.922 121.861C213.154 121.505 213.27 120.66 213.27 119.326V104.218C213.27 102.747 213.114 101.832 212.801 101.476C212.348 100.97 211.675 100.717 210.782 100.717H209.894V100.079H218.543C220.654 100.079 222.319 100.298 223.537 100.734C224.755 101.16 225.782 101.884 226.617 102.908C227.453 103.931 227.87 105.144 227.87 106.547C227.87 108.455 227.232 110.007 225.956 111.203C224.692 112.399 222.899 112.997 220.579 112.997C220.011 112.997 219.396 112.956 218.735 112.876C218.073 112.796 217.366 112.675 216.612 112.514ZM216.612 111.531C217.226 111.646 217.772 111.732 218.247 111.789C218.723 111.847 219.129 111.876 219.465 111.876C220.672 111.876 221.71 111.416 222.58 110.496C223.462 109.565 223.903 108.363 223.903 106.891C223.903 105.88 223.694 104.943 223.276 104.08C222.859 103.206 222.267 102.557 221.501 102.131C220.736 101.695 219.866 101.476 218.891 101.476C218.299 101.476 217.54 101.585 216.612 101.804V111.531Z" fill="white"/>
<path d="M255.719 123.465H249.42L241.433 112.531C240.841 112.554 240.359 112.566 239.988 112.566C239.837 112.566 239.675 112.566 239.501 112.566C239.327 112.554 239.147 112.543 238.962 112.531V119.326C238.962 120.798 239.124 121.712 239.449 122.068C239.89 122.574 240.551 122.827 241.433 122.827H242.355V123.465H232.244V122.827H233.132C234.13 122.827 234.843 122.505 235.272 121.861C235.516 121.505 235.638 120.66 235.638 119.326V104.218C235.638 102.747 235.475 101.832 235.151 101.476C234.698 100.97 234.025 100.717 233.132 100.717H232.244V100.079H240.841C243.347 100.079 245.191 100.263 246.375 100.631C247.57 100.987 248.579 101.654 249.403 102.632C250.238 103.597 250.655 104.753 250.655 106.098C250.655 107.535 250.18 108.783 249.229 109.841C248.289 110.898 246.827 111.646 244.843 112.083L249.716 118.792C250.829 120.332 251.787 121.356 252.587 121.861C253.387 122.367 254.432 122.689 255.719 122.827V123.465ZM238.962 111.445C239.182 111.445 239.373 111.45 239.536 111.462C239.698 111.462 239.832 111.462 239.936 111.462C242.187 111.462 243.88 110.979 245.017 110.013C246.166 109.047 246.74 107.817 246.74 106.322C246.74 104.862 246.276 103.678 245.348 102.77C244.431 101.85 243.213 101.39 241.694 101.39C241.021 101.39 240.11 101.499 238.962 101.718V111.445Z" fill="white"/>
<path d="M270.935 99.5444C273.997 99.5444 276.648 100.7 278.887 103.011C281.138 105.311 282.263 108.185 282.263 111.634C282.263 115.187 281.132 118.136 278.87 120.482C276.608 122.827 273.87 124 270.656 124C267.408 124 264.676 122.856 262.46 120.568C260.256 118.28 259.154 115.319 259.154 111.686C259.154 107.972 260.43 104.943 262.982 102.597C265.198 100.562 267.849 99.5444 270.935 99.5444ZM270.604 100.803C268.493 100.803 266.799 101.58 265.523 103.132C263.933 105.063 263.139 107.892 263.139 111.617C263.139 115.434 263.962 118.372 265.61 120.43C266.874 121.994 268.545 122.775 270.621 122.775C272.837 122.775 274.664 121.919 276.103 120.206C277.553 118.493 278.278 115.791 278.278 112.1C278.278 108.099 277.483 105.115 275.894 103.149C274.618 101.585 272.855 100.803 270.604 100.803Z" fill="white"/>
<path d="M293.441 101.355V110.548H297.739C298.726 110.548 299.445 110.335 299.897 109.91C300.361 109.473 300.669 108.616 300.82 107.34H301.463V115.256H300.82C300.808 114.348 300.686 113.681 300.454 113.255C300.234 112.83 299.92 112.514 299.514 112.307C299.12 112.088 298.528 111.979 297.739 111.979H293.441V119.326C293.441 120.51 293.517 121.292 293.667 121.672C293.783 121.959 294.027 122.206 294.398 122.413C294.909 122.689 295.442 122.827 295.999 122.827H296.852V123.465H286.724V122.827H287.56C288.534 122.827 289.242 122.546 289.683 121.982C289.961 121.614 290.1 120.729 290.1 119.326V104.218C290.1 103.034 290.025 102.252 289.874 101.873C289.758 101.585 289.52 101.338 289.16 101.131C288.662 100.855 288.128 100.717 287.56 100.717H286.724V100.079H304.283L304.509 105.219H303.9C303.598 104.126 303.244 103.327 302.838 102.821C302.444 102.304 301.951 101.93 301.359 101.7C300.779 101.47 299.874 101.355 298.644 101.355H293.441Z" fill="white"/>
<path d="M315.93 101.355V110.599H321.116C322.462 110.599 323.361 110.398 323.813 109.996C324.417 109.467 324.753 108.536 324.823 107.202H325.467V115.342H324.823C324.66 114.204 324.498 113.474 324.335 113.152C324.127 112.75 323.784 112.433 323.309 112.203C322.833 111.973 322.102 111.858 321.116 111.858H315.93V119.568C315.93 120.602 315.977 121.235 316.07 121.465C316.163 121.683 316.325 121.861 316.557 121.999C316.789 122.126 317.23 122.189 317.879 122.189H321.882C323.216 122.189 324.185 122.097 324.788 121.913C325.391 121.729 325.971 121.367 326.528 120.827C327.247 120.114 327.984 119.039 328.738 117.602H329.434L327.398 123.465H309.213V122.827H310.049C310.606 122.827 311.133 122.695 311.632 122.431C312.004 122.247 312.253 121.971 312.381 121.603C312.52 121.235 312.589 120.482 312.589 119.343V104.149C312.589 102.666 312.439 101.752 312.137 101.407C311.719 100.947 311.023 100.717 310.049 100.717H309.213V100.079H327.398L327.659 105.201H326.981C326.737 103.971 326.464 103.126 326.163 102.666C325.873 102.206 325.438 101.855 324.858 101.614C324.393 101.442 323.576 101.355 322.404 101.355H315.93Z" fill="white"/>
<path d="M349.104 99.5444V107.633H348.46C348.252 106.081 347.875 104.845 347.329 103.925C346.796 103.005 346.03 102.275 345.032 101.735C344.035 101.194 343.002 100.924 341.935 100.924C340.728 100.924 339.731 101.292 338.942 102.028C338.153 102.752 337.758 103.58 337.758 104.511C337.758 105.224 338.008 105.874 338.507 106.46C339.226 107.323 340.937 108.472 343.64 109.91C345.844 111.082 347.347 111.985 348.147 112.617C348.959 113.238 349.58 113.974 350.009 114.825C350.45 115.676 350.67 116.567 350.67 117.498C350.67 119.269 349.974 120.798 348.582 122.086C347.202 123.362 345.421 124 343.24 124C342.555 124 341.912 123.948 341.308 123.845C340.949 123.787 340.2 123.58 339.064 123.224C337.938 122.856 337.225 122.672 336.923 122.672C336.633 122.672 336.401 122.758 336.227 122.931C336.065 123.103 335.943 123.46 335.862 124H335.218V115.98H335.862C336.163 117.659 336.569 118.918 337.08 119.757C337.59 120.585 338.368 121.275 339.412 121.827C340.467 122.379 341.622 122.655 342.875 122.655C344.325 122.655 345.467 122.275 346.303 121.517C347.15 120.758 347.573 119.861 347.573 118.826C347.573 118.251 347.411 117.671 347.086 117.084C346.773 116.498 346.279 115.952 345.607 115.446C345.154 115.101 343.919 114.371 341.9 113.255C339.881 112.129 338.443 111.232 337.584 110.565C336.738 109.898 336.094 109.162 335.653 108.357C335.212 107.553 334.992 106.667 334.992 105.701C334.992 104.023 335.641 102.58 336.941 101.373C338.24 100.154 339.893 99.5444 341.9 99.5444C343.153 99.5444 344.481 99.8491 345.885 100.459C346.535 100.746 346.993 100.89 347.26 100.89C347.561 100.89 347.805 100.803 347.991 100.631C348.188 100.447 348.344 100.085 348.46 99.5444H349.104Z" fill="white"/>
<path d="M371.437 99.5444V107.633H370.793C370.584 106.081 370.207 104.845 369.662 103.925C369.128 103.005 368.363 102.275 367.365 101.735C366.367 101.194 365.335 100.924 364.267 100.924C363.061 100.924 362.063 101.292 361.274 102.028C360.485 102.752 360.091 103.58 360.091 104.511C360.091 105.224 360.34 105.874 360.839 106.46C361.559 107.323 363.27 108.472 365.973 109.91C368.177 111.082 369.679 111.985 370.48 112.617C371.292 113.238 371.913 113.974 372.342 114.825C372.783 115.676 373.003 116.567 373.003 117.498C373.003 119.269 372.307 120.798 370.915 122.086C369.534 123.362 367.754 124 365.573 124C364.888 124 364.244 123.948 363.641 123.845C363.281 123.787 362.533 123.58 361.396 123.224C360.271 122.856 359.557 122.672 359.256 122.672C358.966 122.672 358.734 122.758 358.56 122.931C358.397 123.103 358.275 123.46 358.194 124H357.55V115.98H358.194C358.496 117.659 358.902 118.918 359.412 119.757C359.923 120.585 360.7 121.275 361.744 121.827C362.8 122.379 363.954 122.655 365.207 122.655C366.657 122.655 367.8 122.275 368.635 121.517C369.482 120.758 369.906 119.861 369.906 118.826C369.906 118.251 369.743 117.671 369.418 117.084C369.105 116.498 368.612 115.952 367.939 115.446C367.487 115.101 366.251 114.371 364.233 113.255C362.214 112.129 360.776 111.232 359.917 110.565C359.07 109.898 358.426 109.162 357.985 108.357C357.545 107.553 357.324 106.667 357.324 105.701C357.324 104.023 357.974 102.58 359.273 101.373C360.572 100.154 362.226 99.5444 364.233 99.5444C365.486 99.5444 366.814 99.8491 368.218 100.459C368.867 100.746 369.326 100.89 369.592 100.89C369.894 100.89 370.138 100.803 370.323 100.631C370.52 100.447 370.677 100.085 370.793 99.5444H371.437Z" fill="white"/>
<path d="M388.427 122.827V123.465H378.317V122.827H379.152C380.127 122.827 380.834 122.546 381.275 121.982C381.554 121.614 381.693 120.729 381.693 119.326V104.218C381.693 103.034 381.617 102.252 381.467 101.873C381.351 101.585 381.113 101.338 380.753 101.131C380.243 100.855 379.709 100.717 379.152 100.717H378.317V100.079H388.427V100.717H387.575C386.612 100.717 385.91 100.999 385.469 101.562C385.179 101.93 385.034 102.816 385.034 104.218V119.326C385.034 120.51 385.109 121.292 385.26 121.672C385.376 121.959 385.62 122.206 385.991 122.413C386.49 122.689 387.018 122.827 387.575 122.827H388.427Z" fill="white"/>
<path d="M404.826 99.5444C407.889 99.5444 410.539 100.7 412.778 103.011C415.029 105.311 416.154 108.185 416.154 111.634C416.154 115.187 415.023 118.136 412.761 120.482C410.499 122.827 407.761 124 404.547 124C401.299 124 398.567 122.856 396.351 120.568C394.147 118.28 393.045 115.319 393.045 111.686C393.045 107.972 394.321 104.943 396.873 102.597C399.089 100.562 401.74 99.5444 404.826 99.5444ZM404.495 100.803C402.384 100.803 400.69 101.58 399.414 103.132C397.825 105.063 397.03 107.892 397.03 111.617C397.03 115.434 397.854 118.372 399.501 120.43C400.765 121.994 402.436 122.775 404.513 122.775C406.728 122.775 408.556 121.919 409.994 120.206C411.444 118.493 412.169 115.791 412.169 112.1C412.169 108.099 411.375 105.115 409.785 103.149C408.509 101.585 406.746 100.803 404.495 100.803Z" fill="white"/>
<path d="M419.571 100.079H425.975L440.401 117.619V104.132C440.401 102.695 440.239 101.798 439.914 101.442C439.485 100.959 438.806 100.717 437.878 100.717H437.06V100.079H445.274V100.717H444.438C443.441 100.717 442.733 101.016 442.315 101.614C442.06 101.982 441.932 102.821 441.932 104.132V123.845H441.306L425.749 105.012V119.412C425.749 120.85 425.906 121.746 426.219 122.103C426.66 122.586 427.338 122.827 428.255 122.827H429.09V123.465H420.876V122.827H421.694C422.704 122.827 423.417 122.528 423.835 121.93C424.09 121.562 424.218 120.723 424.218 119.412V103.149C423.533 102.356 423.011 101.832 422.651 101.58C422.303 101.327 421.787 101.091 421.103 100.872C420.766 100.769 420.256 100.717 419.571 100.717V100.079Z" fill="white"/>
<path d="M464.596 115.635H455.46L453.859 119.326C453.464 120.235 453.267 120.913 453.267 121.361C453.267 121.718 453.435 122.034 453.772 122.31C454.12 122.574 454.862 122.747 455.999 122.827V123.465H448.569V122.827C449.555 122.655 450.193 122.431 450.483 122.155C451.075 121.603 451.73 120.482 452.449 118.792L460.75 99.5444H461.359L469.573 118.999C470.234 120.562 470.831 121.58 471.365 122.051C471.91 122.511 472.664 122.77 473.627 122.827V123.465H464.317V122.827C465.257 122.781 465.889 122.626 466.214 122.362C466.551 122.097 466.719 121.775 466.719 121.396C466.719 120.89 466.487 120.091 466.023 118.999L464.596 115.635ZM464.108 114.359L460.106 104.908L455.999 114.359H464.108Z" fill="white"/>
<path d="M496.969 116.998L497.543 117.119L495.525 123.465H477.253V122.827H478.141C479.138 122.827 479.852 122.505 480.281 121.861C480.525 121.494 480.646 120.643 480.646 119.309V104.218C480.646 102.758 480.484 101.844 480.159 101.476C479.707 100.97 479.034 100.717 478.141 100.717H477.253V100.079H487.938V100.717C486.685 100.706 485.803 100.821 485.293 101.062C484.794 101.304 484.452 101.608 484.266 101.976C484.08 102.344 483.987 103.224 483.987 104.615V119.309C483.987 120.263 484.08 120.919 484.266 121.275C484.405 121.516 484.62 121.695 484.91 121.81C485.2 121.925 486.105 121.982 487.624 121.982H489.347C491.157 121.982 492.427 121.85 493.158 121.585C493.889 121.321 494.556 120.855 495.159 120.189C495.763 119.51 496.366 118.447 496.969 116.998Z" fill="white"/>
<path d="M532.655 116.998L533.229 117.119L531.211 123.465H512.939V122.827H513.826C514.824 122.827 515.538 122.505 515.967 121.861C516.21 121.494 516.332 120.643 516.332 119.309V104.218C516.332 102.758 516.17 101.844 515.845 101.476C515.393 100.97 514.72 100.717 513.826 100.717H512.939V100.079H523.624V100.717C522.371 100.706 521.489 100.821 520.979 101.062C520.48 101.304 520.137 101.608 519.952 101.976C519.766 102.344 519.673 103.224 519.673 104.615V119.309C519.673 120.263 519.766 120.919 519.952 121.275C520.091 121.516 520.306 121.695 520.596 121.81C520.886 121.925 521.791 121.982 523.31 121.982H525.033C526.843 121.982 528.113 121.85 528.844 121.585C529.575 121.321 530.242 120.855 530.845 120.189C531.449 119.51 532.052 118.447 532.655 116.998Z" fill="white"/>
<path d="M552.812 115.635H543.677L542.076 119.326C541.681 120.235 541.484 120.913 541.484 121.361C541.484 121.718 541.652 122.034 541.989 122.31C542.337 122.574 543.079 122.747 544.216 122.827V123.465H536.786V122.827C537.772 122.655 538.41 122.431 538.7 122.155C539.291 121.603 539.947 120.482 540.666 118.792L548.967 99.5444H549.576L557.789 118.999C558.451 120.562 559.048 121.58 559.582 122.051C560.127 122.511 560.881 122.77 561.844 122.827V123.465H552.534V122.827C553.474 122.781 554.106 122.626 554.431 122.362C554.767 122.097 554.935 121.775 554.935 121.396C554.935 120.89 554.703 120.091 554.239 118.999L552.812 115.635ZM552.325 114.359L548.323 104.908L544.216 114.359H552.325Z" fill="white"/>
<path d="M598.115 100.079V100.717C597.5 100.717 597.002 100.826 596.619 101.045C596.236 101.263 595.87 101.672 595.522 102.269C595.29 102.672 594.925 103.632 594.426 105.15L587.848 124H587.152L581.775 109.047L576.433 124H575.806L568.793 104.58C568.271 103.132 567.941 102.275 567.802 102.011C567.57 101.574 567.25 101.252 566.844 101.045C566.45 100.826 565.911 100.717 565.226 100.717V100.079H573.962V100.717H573.544C572.929 100.717 572.459 100.855 572.135 101.131C571.81 101.407 571.647 101.741 571.647 102.131C571.647 102.534 571.903 103.459 572.413 104.908L577.059 118.033L580.975 106.874L579.722 103.339C579.478 102.764 579.205 102.258 578.904 101.821C578.753 101.603 578.567 101.419 578.347 101.269C578.057 101.062 577.767 100.913 577.477 100.821C577.256 100.752 576.908 100.717 576.433 100.717V100.079H585.621V100.717H584.994C584.345 100.717 583.869 100.855 583.567 101.131C583.266 101.407 583.115 101.781 583.115 102.252C583.115 102.839 583.376 103.862 583.898 105.322L588.423 118.033L592.912 105.15C593.423 103.724 593.678 102.735 593.678 102.183C593.678 101.919 593.591 101.672 593.417 101.442C593.254 101.212 593.046 101.051 592.79 100.959C592.35 100.798 591.775 100.717 591.068 100.717V100.079H598.115Z" fill="white"/>
<path d="M633.766 99.5444L634.306 107.495H633.766C633.047 105.115 632.02 103.402 630.686 102.356C629.352 101.309 627.751 100.786 625.883 100.786C624.317 100.786 622.902 101.183 621.637 101.976C620.373 102.758 619.375 104.011 618.644 105.736C617.925 107.461 617.565 109.605 617.565 112.169C617.565 114.284 617.908 116.118 618.592 117.671C619.277 119.223 620.303 120.413 621.672 121.241C623.053 122.068 624.625 122.482 626.388 122.482C627.919 122.482 629.271 122.16 630.443 121.517C631.614 120.861 632.902 119.568 634.306 117.636L634.845 117.981C633.662 120.062 632.281 121.585 630.704 122.551C629.126 123.517 627.252 124 625.083 124C621.173 124 618.146 122.563 615.999 119.688C614.398 117.55 613.598 115.032 613.598 112.134C613.598 109.8 614.126 107.656 615.181 105.701C616.237 103.747 617.687 102.235 619.532 101.166C621.388 100.085 623.412 99.5444 625.605 99.5444C627.31 99.5444 628.993 99.9584 630.651 100.786C631.139 101.039 631.487 101.166 631.696 101.166C632.009 101.166 632.281 101.056 632.513 100.838C632.815 100.527 633.03 100.096 633.157 99.5444H633.766Z" fill="white"/>
<path d="M651.609 99.5444C654.672 99.5444 657.323 100.7 659.562 103.011C661.813 105.311 662.938 108.185 662.938 111.634C662.938 115.187 661.807 118.136 659.545 120.482C657.282 122.827 654.544 124 651.331 124C648.083 124 645.351 122.856 643.135 120.568C640.931 118.28 639.828 115.319 639.828 111.686C639.828 107.972 641.105 104.943 643.657 102.597C645.873 100.562 648.523 99.5444 651.609 99.5444ZM651.279 100.803C649.167 100.803 647.474 101.58 646.197 103.132C644.608 105.063 643.813 107.892 643.813 111.617C643.813 115.434 644.637 118.372 646.284 120.43C647.549 121.994 649.22 122.775 651.296 122.775C653.512 122.775 655.339 121.919 656.778 120.206C658.228 118.493 658.953 115.791 658.953 112.1C658.953 108.099 658.158 105.115 656.569 103.149C655.293 101.585 653.529 100.803 651.279 100.803Z" fill="white"/>
<path d="M690.909 123.465H684.609L676.622 112.531C676.03 112.554 675.549 112.566 675.177 112.566C675.027 112.566 674.864 112.566 674.69 112.566C674.516 112.554 674.336 112.543 674.151 112.531V119.326C674.151 120.798 674.313 121.712 674.638 122.068C675.079 122.574 675.74 122.827 676.622 122.827H677.544V123.465H667.434V122.827H668.321C669.319 122.827 670.032 122.505 670.462 121.861C670.705 121.505 670.827 120.66 670.827 119.326V104.218C670.827 102.747 670.665 101.832 670.34 101.476C669.887 100.97 669.215 100.717 668.321 100.717H667.434V100.079H676.03C678.536 100.079 680.381 100.263 681.564 100.631C682.759 100.987 683.768 101.654 684.592 102.632C685.427 103.597 685.845 104.753 685.845 106.098C685.845 107.535 685.369 108.783 684.418 109.841C683.478 110.898 682.016 111.646 680.033 112.083L684.905 118.792C686.019 120.332 686.976 121.356 687.776 121.861C688.577 122.367 689.621 122.689 690.909 122.827V123.465ZM674.151 111.445C674.371 111.445 674.563 111.45 674.725 111.462C674.887 111.462 675.021 111.462 675.125 111.462C677.376 111.462 679.07 110.979 680.207 110.013C681.355 109.047 681.929 107.817 681.929 106.322C681.929 104.862 681.465 103.678 680.537 102.77C679.621 101.85 678.403 101.39 676.883 101.39C676.21 101.39 675.299 101.499 674.151 101.718V111.445Z" fill="white"/>
<path d="M700.399 112.514V119.326C700.399 120.798 700.561 121.712 700.886 122.068C701.327 122.574 701.994 122.827 702.887 122.827H703.792V123.465H693.682V122.827H694.569C695.567 122.827 696.28 122.505 696.71 121.861C696.942 121.505 697.058 120.66 697.058 119.326V104.218C697.058 102.747 696.901 101.832 696.588 101.476C696.135 100.97 695.462 100.717 694.569 100.717H693.682V100.079H702.33C704.442 100.079 706.107 100.298 707.325 100.734C708.543 101.16 709.569 101.884 710.405 102.908C711.24 103.931 711.658 105.144 711.658 106.547C711.658 108.455 711.02 110.007 709.743 111.203C708.479 112.399 706.687 112.997 704.366 112.997C703.798 112.997 703.183 112.956 702.522 112.876C701.861 112.796 701.153 112.675 700.399 112.514ZM700.399 111.531C701.014 111.646 701.559 111.732 702.035 111.789C702.51 111.847 702.916 111.876 703.253 111.876C704.459 111.876 705.497 111.416 706.368 110.496C707.249 109.565 707.69 108.363 707.69 106.891C707.69 105.88 707.481 104.943 707.064 104.08C706.646 103.206 706.054 102.557 705.289 102.131C704.523 101.695 703.653 101.476 702.678 101.476C702.087 101.476 701.327 101.585 700.399 101.804V111.531Z" fill="white"/>
<path d="M728.457 99.5444C731.519 99.5444 734.17 100.7 736.409 103.011C738.66 105.311 739.785 108.185 739.785 111.634C739.785 115.187 738.654 118.136 736.392 120.482C734.13 122.827 731.392 124 728.178 124C724.93 124 722.198 122.856 719.982 120.568C717.778 118.28 716.676 115.319 716.676 111.686C716.676 107.972 717.952 104.943 720.504 102.597C722.72 100.562 725.371 99.5444 728.457 99.5444ZM728.126 100.803C726.015 100.803 724.321 101.58 723.045 103.132C721.455 105.063 720.661 107.892 720.661 111.617C720.661 115.434 721.484 118.372 723.132 120.43C724.396 121.994 726.067 122.775 728.143 122.775C730.359 122.775 732.186 121.919 733.625 120.206C735.075 118.493 735.8 115.791 735.8 112.1C735.8 108.099 735.005 105.115 733.416 103.149C732.14 101.585 730.377 100.803 728.126 100.803Z" fill="white"/>
<path d="M767.756 123.465H761.456L753.469 112.531C752.877 112.554 752.396 112.566 752.025 112.566C751.874 112.566 751.711 112.566 751.537 112.566C751.363 112.554 751.184 112.543 750.998 112.531V119.326C750.998 120.798 751.16 121.712 751.485 122.068C751.926 122.574 752.587 122.827 753.469 122.827H754.391V123.465H744.281V122.827H745.168C746.166 122.827 746.88 122.505 747.309 121.861C747.552 121.505 747.674 120.66 747.674 119.326V104.218C747.674 102.747 747.512 101.832 747.187 101.476C746.735 100.97 746.062 100.717 745.168 100.717H744.281V100.079H752.877C755.383 100.079 757.228 100.263 758.411 100.631C759.606 100.987 760.615 101.654 761.439 102.632C762.274 103.597 762.692 104.753 762.692 106.098C762.692 107.535 762.216 108.783 761.265 109.841C760.325 110.898 758.864 111.646 756.88 112.083L761.752 118.792C762.866 120.332 763.823 121.356 764.623 121.861C765.424 122.367 766.468 122.689 767.756 122.827V123.465ZM750.998 111.445C751.218 111.445 751.41 111.45 751.572 111.462C751.735 111.462 751.868 111.462 751.972 111.462C754.223 111.462 755.917 110.979 757.054 110.013C758.202 109.047 758.777 107.817 758.777 106.322C758.777 104.862 758.312 103.678 757.384 102.77C756.468 101.85 755.25 101.39 753.73 101.39C753.057 101.39 752.146 101.499 750.998 101.718V111.445Z" fill="white"/>
<path d="M786.243 115.635H777.107L775.506 119.326C775.111 120.235 774.914 120.913 774.914 121.361C774.914 121.718 775.082 122.034 775.419 122.31C775.767 122.574 776.509 122.747 777.646 122.827V123.465H770.216V122.827C771.202 122.655 771.84 122.431 772.13 122.155C772.721 121.603 773.377 120.482 774.096 118.792L782.397 99.5444H783.006L791.219 118.999C791.881 120.562 792.478 121.58 793.012 122.051C793.557 122.511 794.311 122.77 795.274 122.827V123.465H785.964V122.827C786.904 122.781 787.536 122.626 787.861 122.362C788.197 122.097 788.366 121.775 788.366 121.396C788.366 120.89 788.134 120.091 787.67 118.999L786.243 115.635ZM785.755 114.359L781.753 104.908L777.646 114.359H785.755Z" fill="white"/>
<path d="M818.807 100.079L819.068 105.563H818.407C818.28 104.598 818.106 103.908 817.885 103.494C817.526 102.827 817.044 102.338 816.441 102.028C815.849 101.706 815.066 101.545 814.092 101.545H810.768V119.412C810.768 120.85 810.924 121.746 811.238 122.103C811.679 122.586 812.357 122.827 813.274 122.827H814.092V123.465H804.086V122.827H804.921C805.919 122.827 806.626 122.528 807.044 121.93C807.299 121.562 807.427 120.723 807.427 119.412V101.545H804.59C803.488 101.545 802.705 101.626 802.241 101.786C801.638 102.005 801.122 102.425 800.692 103.045C800.263 103.666 800.008 104.506 799.927 105.563H799.265L799.544 100.079H818.807Z" fill="white"/>
<path d="M833.466 122.827V123.465H823.355V122.827H824.191C825.165 122.827 825.873 122.546 826.314 121.982C826.592 121.614 826.731 120.729 826.731 119.326V104.218C826.731 103.034 826.656 102.252 826.505 101.873C826.389 101.585 826.151 101.338 825.792 101.131C825.281 100.855 824.748 100.717 824.191 100.717H823.355V100.079H833.466V100.717H832.613C831.65 100.717 830.948 100.999 830.508 101.562C830.218 101.93 830.073 102.816 830.073 104.218V119.326C830.073 120.51 830.148 121.292 830.299 121.672C830.415 121.959 830.658 122.206 831.03 122.413C831.528 122.689 832.056 122.827 832.613 122.827H833.466Z" fill="white"/>
<path d="M849.865 99.5444C852.927 99.5444 855.578 100.7 857.817 103.011C860.068 105.311 861.193 108.185 861.193 111.634C861.193 115.187 860.062 118.136 857.8 120.482C855.537 122.827 852.8 124 849.586 124C846.338 124 843.606 122.856 841.39 120.568C839.186 118.28 838.084 115.319 838.084 111.686C838.084 107.972 839.36 104.943 841.912 102.597C844.128 100.562 846.779 99.5444 849.865 99.5444ZM849.534 100.803C847.422 100.803 845.729 101.58 844.453 103.132C842.863 105.063 842.069 107.892 842.069 111.617C842.069 115.434 842.892 118.372 844.54 120.43C845.804 121.994 847.475 122.775 849.551 122.775C851.767 122.775 853.594 121.919 855.033 120.206C856.483 118.493 857.208 115.791 857.208 112.1C857.208 108.099 856.413 105.115 854.824 103.149C853.548 101.585 851.784 100.803 849.534 100.803Z" fill="white"/>
<path d="M864.61 100.079H871.014L885.44 117.619V104.132C885.44 102.695 885.277 101.798 884.953 101.442C884.523 100.959 883.845 100.717 882.917 100.717H882.099V100.079H890.312V100.717H889.477C888.479 100.717 887.772 101.016 887.354 101.614C887.099 101.982 886.971 102.821 886.971 104.132V123.845H886.345L870.788 105.012V119.412C870.788 120.85 870.944 121.746 871.257 122.103C871.698 122.586 872.377 122.827 873.293 122.827H874.129V123.465H865.915V122.827H866.733C867.742 122.827 868.456 122.528 868.873 121.93C869.129 121.562 869.256 120.723 869.256 119.412V103.149C868.572 102.356 868.05 101.832 867.69 101.58C867.342 101.327 866.826 101.091 866.141 100.872C865.805 100.769 865.294 100.717 864.61 100.717V100.079Z" fill="white"/>
<path fill-rule="evenodd" clip-rule="evenodd" d="M948 105L955.5 83.8063L978 83.2262L960.143 69.5506L966.549 48L948 60.7385L929.473 48L935.879 69.5506L918 83.2262L940.5 83.8063L948 105Z" fill="url(#paint2_linear_3032_4721)"/>
<defs>
<linearGradient id="paint0_linear_3032_4721" x1="-20" y1="77" x2="1078" y2="77" gradientUnits="userSpaceOnUse">
<stop stop-color="#CC1B1B"/>
<stop offset="1" stop-color="#FF0000"/>
</linearGradient>
<linearGradient id="paint1_linear_3032_4721" x1="116.145" y1="35.9819" x2="116.471" y2="112.211" gradientUnits="userSpaceOnUse">
<stop stop-color="#AA771C"/>
<stop offset="0.41" stop-color="#FCF6BA"/>
<stop offset="1" stop-color="#B5862E"/>
</linearGradient>
<linearGradient id="paint2_linear_3032_4721" x1="954.145" y1="35.9819" x2="954.471" y2="112.211" gradientUnits="userSpaceOnUse">
<stop stop-color="#AA771C"/>
<stop offset="0.41" stop-color="#FCF6BA"/>
<stop offset="1" stop-color="#B5862E"/>
</linearGradient>
</defs>
</svg>
