<svg width="50" height="42" viewBox="0 0 50 42" fill="none" xmlns="http://www.w3.org/2000/svg">
<path d="M45.8333 6.2501H35.4167V4.1667C35.4167 1.86875 33.548 0 31.25 0H18.75C16.4521 0 14.5833 1.86865 14.5833 4.1667V6.25H4.1667C1.86865 6.2501 0 8.11875 0 10.4167V16.6667C0 18.9647 1.86865 20.8334 4.1667 20.8334H20.8334V19.7917C20.8334 19.2159 21.2993 18.75 21.8751 18.75H28.1251C28.7009 18.75 29.1668 19.2159 29.1668 19.7917V20.8334H45.8335C48.1313 20.8334 50 18.9647 50 16.6667V10.4167C50 8.11875 48.1313 6.2501 45.8333 6.2501ZM31.25 6.2501H18.75V4.1667H31.25V6.2501Z" fill="#FF0000"/>
<path d="M49.4222 21.9574C49.0672 21.7814 48.643 21.8222 48.3296 22.0602C47.5891 22.6207 46.7264 22.9167 45.8332 22.9167H29.1667V26.0417C29.1667 26.6175 28.7008 27.0834 28.125 27.0834H21.875C21.2992 27.0834 20.8333 26.6175 20.8333 26.0417V22.9167H4.1667C3.27354 22.9167 2.41094 22.6207 1.67031 22.0602C1.35596 21.8201 0.932812 21.7794 0.577734 21.9574C0.223828 22.1335 0 22.4945 0 22.8903V37.5001C0 39.798 1.86865 41.6668 4.1667 41.6668H45.8334C48.1313 41.6668 50.0001 39.7981 50.0001 37.5001V22.8903C50 22.4945 49.7762 22.1335 49.4222 21.9574Z" fill="#FF0000"/>
</svg>
