<svg width="50" height="30" viewBox="0 0 50 30" fill="none" xmlns="http://www.w3.org/2000/svg">
<path d="M12.0833 2.2917C10.4166 0.625 3.3333 0.208398 1.0416 0C0.833301 0 0.624902 3.25963e-07 0.416602 0.208301C0.208301 0.4167 0 0.833398 0 1.0417V19.7917C0 20.4167 0.416699 20.8334 1.0417 20.8334H7.2917C7.7084 20.8334 8.125 20.6251 8.3334 20.2084C8.3334 19.5834 12.0834 8.5417 12.5001 3.1251C12.5 2.9167 12.5 2.5001 12.0833 2.2917Z" fill="#FF0000"/>
<path d="M34.3749 7.29164C32.2916 6.66664 30.4166 5.83334 28.7499 5.20834C24.9999 3.54164 23.3332 4.37504 19.9999 7.70834C18.5416 9.16664 17.4999 11.25 17.7082 12.0833C17.7082 12.2916 17.7082 12.2916 18.1249 12.5C19.1666 12.9167 20.6249 13.125 22.0832 10.8333C22.2915 10.625 22.4999 10.4166 22.9165 10.4166C23.5415 10.4166 23.7498 10.2083 24.3748 9.99994C24.7915 9.79164 25.2081 9.58324 25.8331 9.37494C26.0414 9.37494 26.0414 9.37494 26.2498 9.37494C26.4581 9.37494 26.8748 9.58324 27.0831 9.58324C28.1249 10.625 29.9999 12.0833 31.8749 13.75C34.7916 16.0417 37.7082 18.5417 39.1666 20.4167H39.3749C37.9166 16.25 35.4166 9.16664 34.3749 7.29164Z" fill="#FF0000"/>
<path d="M48.9587 2.0835C40.8337 2.0835 36.2504 4.1668 36.042 4.1668C35.8337 4.3751 35.6253 4.5835 35.417 4.7918C35.417 5.0001 35.417 5.4168 35.6253 5.6251C36.8753 7.7084 41.042 19.1668 41.667 22.0834C41.8753 22.5001 42.292 22.9167 42.7087 22.9167H48.9587C49.5837 22.9167 50.0004 22.5 50.0004 21.875V3.125C50.0004 2.50019 49.5837 2.0835 48.9587 2.0835Z" fill="#FF0000"/>
<path d="M37.7079 22.5C36.8746 20.625 33.3329 17.9167 30.2079 15.4167C28.5413 13.9583 26.8746 12.7083 25.6246 11.6666C25.4163 11.8749 24.9996 11.8749 24.9996 12.0833C24.3746 12.2916 24.1663 12.5 23.3329 12.5C21.6663 14.5833 19.5829 15.4166 17.2913 14.5833C16.2496 14.375 15.6246 13.5416 15.4163 12.7083C14.9996 10.625 16.8746 7.7083 18.333 6.25H14.1663C13.333 10.4167 11.8746 15.8333 10.833 18.75C11.6663 19.5833 12.4997 20.625 13.1247 21.0417C17.083 24.375 21.6664 27.7084 22.4997 28.3334C23.1247 28.7501 24.3747 29.1667 24.9997 29.1667C25.208 29.1667 25.4164 29.1667 25.6247 29.1667L22.2913 25.8333C21.8746 25.4166 21.8746 24.7916 22.2913 24.375C22.708 23.9584 23.333 23.9583 23.7496 24.375L27.9163 28.5417C28.333 28.9584 28.7496 28.75 29.1663 28.75C29.7913 28.5417 29.9996 28.125 30.208 27.5L25.4163 22.7083C24.9996 22.2916 24.9996 21.6666 25.4163 21.25C25.833 20.8334 26.458 20.8333 26.8746 21.25L32.0829 26.4583C32.2912 26.6666 33.1246 26.6666 33.7496 26.4583C33.9579 26.25 34.3746 26.0416 34.5829 25.625L28.7496 19.7916C28.3329 19.3749 28.3329 18.7499 28.7496 18.3333C29.1663 17.9167 29.7913 17.9166 30.2079 18.3333L36.2496 24.375C36.6663 24.5833 37.0829 24.375 37.4996 24.1667C37.7079 23.9583 38.1246 23.3333 37.7079 22.5Z" fill="#FF0000"/>
</svg>
