<svg width="55" height="50" viewBox="0 0 55 50" fill="none" xmlns="http://www.w3.org/2000/svg">
<path d="M43.4 11.7165C45.85 11.7165 47.8333 9.73319 47.8333 7.28319C47.8333 4.83319 45.85 2.84985 43.4 2.84985C40.95 2.84985 38.9667 4.83319 38.9667 7.28319C38.9667 9.73319 40.95 11.7165 43.4 11.7165Z" fill="#FF0000"/>
<path d="M46.0504 47.2997C47.1338 47.2997 48.0171 46.4164 48.0171 45.3331V32.8164H44.0671V45.3331C44.0671 46.4164 44.9504 47.2997 46.0504 47.2997Z" fill="#FF0000"/>
<path d="M40.8338 47.2997C41.9171 47.2997 42.8004 46.4164 42.8004 45.3331V32.8164H38.8504V45.3331C38.8504 46.4164 39.7338 47.2997 40.8338 47.2997Z" fill="#FF0000"/>
<path d="M26.7838 29.3999C24.7671 29.3999 23.1338 27.7665 23.1338 25.7499C23.1338 23.7332 24.7671 22.0999 26.7838 22.0999C28.8005 22.0999 30.4338 23.7332 30.4338 25.7499C30.4338 27.7499 28.8005 29.3999 26.7838 29.3999Z" fill="#FF0000"/>
<path d="M33.4176 24.3333C33.8342 22.9167 34.1509 21.6167 34.5842 20.05C34.9509 18.7667 35.3842 17.55 35.7342 16.4167C36.4342 14.0833 38.3842 12.5667 40.7176 12.5667H46.1509C48.5176 12.5667 50.4842 14.0833 51.1342 16.4167C51.5176 17.8 52.0009 19.2833 52.5009 20.85C53.1342 22.8333 53.8009 24.8833 54.3176 26.8333C54.5342 27.65 54.0842 28.5 53.3176 28.7667C53.1342 28.8333 52.9509 28.8666 52.7676 28.8666C52.0176 28.8666 51.3676 28.3833 51.1842 27.6667L48.6842 19.4333L48.3342 18.1C48.2676 17.85 48.0509 17.6833 47.8009 17.6833L47.6676 17.7L47.6342 17.7167C47.3509 17.8 47.1842 18.0833 47.2509 18.3666C47.4342 19.2 47.8509 21.0167 48.3509 23.1333C49.1676 26.6667 50.2009 31.0667 50.6509 33.1833C50.6842 33.3667 50.6509 33.5667 50.5342 33.7C50.4342 33.8333 50.2676 33.9 50.1009 33.9H36.7509C36.5842 33.9 36.4342 33.8333 36.3176 33.7C36.2009 33.55 36.1509 33.3667 36.2009 33.1833C36.6509 31.0667 37.6676 26.6666 38.5009 23.15C39.0009 21.0166 39.4176 19.2 39.6009 18.3666C39.6676 18.0833 39.5009 17.8 39.2176 17.7167L39.0842 17.7H39.0509C38.8009 17.7 38.5676 17.8666 38.5176 18.1166L38.1676 19.45L36.1676 25.7167C35.9009 26.5333 35.0176 26.9667 34.2009 26.6833C33.4342 26.4 33.0342 25.5667 33.2842 24.8C33.3342 24.6167 33.3842 24.4667 33.4176 24.3333Z" fill="#FF0000"/>
<path d="M10.1667 11.5666C7.7334 11.5666 5.7334 9.58328 5.7334 7.13328C5.7334 4.68328 7.7334 2.69995 10.1667 2.69995C12.6001 2.69995 14.6001 4.68328 14.6001 7.13328C14.6001 9.58328 12.6167 11.5666 10.1667 11.5666Z" fill="#FF0000"/>
<path d="M18.8505 17.6332C18.2005 14.8332 16.3171 12.8999 13.4338 12.8999H6.93379C4.05045 12.8999 1.63379 15.0999 1.40045 17.9832L0.633786 27.2666C0.550453 28.2499 1.36712 29.1166 2.40045 29.0332C3.21712 28.9666 3.83379 28.2666 3.90045 27.4499L4.58379 18.8832C4.61712 18.6332 4.71712 18.0666 5.18379 18.0666C5.35045 18.0666 5.60045 18.1332 5.60045 18.7499V45.3332C5.60045 46.4166 6.48379 47.2999 7.56712 47.2999C8.65045 47.2999 9.53379 46.4166 9.53379 45.3332V30.2666C9.56712 30.2332 10.7838 30.2332 10.8005 30.2666V45.3332C10.8005 46.4166 11.6838 47.2999 12.7671 47.2999C13.8505 47.2999 14.7338 46.4166 14.7338 45.3332V18.7332C14.7338 18.1166 14.9838 18.0499 15.1505 18.0499C15.6338 18.0499 15.7171 18.7166 15.8005 18.9499L17.1171 25.4499C17.3005 26.2499 18.0005 26.8499 18.8171 26.7999C19.8505 26.7332 20.5505 25.7666 20.3338 24.7999L18.8505 17.6332Z" fill="#FF0000"/>
<path d="M33.6841 27.0834C33.0341 26.9334 32.3841 27.3001 32.0841 27.9001C30.8341 30.3001 28.1508 30.3001 28.0841 30.3001C27.8341 30.3334 25.8674 30.3334 25.4841 30.3001C25.4174 30.2834 22.7341 30.3001 21.4841 27.9001C21.1841 27.3167 20.5341 26.9334 19.8841 27.0834C18.9674 27.2834 18.5174 28.2667 18.9008 29.0834C19.5841 30.4834 20.7841 32.1501 23.1674 32.7667V45.6667C23.1674 46.4334 23.6841 47.1167 24.4341 47.2667C25.4341 47.4667 26.3341 46.7001 26.3341 45.7334V38.7667H27.2674V45.7334C27.2841 46.6001 27.9841 47.3001 28.8508 47.3001C29.7174 47.3001 30.4341 46.6001 30.4341 45.7334C30.4508 45.7334 30.4341 34.0834 30.4341 34.0834C30.4341 34.0667 30.4341 34.0334 30.4341 33.9667V32.7501C32.8174 32.1334 34.0174 30.4834 34.7008 29.0667C35.0674 28.2667 34.6008 27.2834 33.6841 27.0834Z" fill="#FF0000"/>
</svg>
